<?xml version="1.0" standalone="no"?>
<!DOCTYPE svg PUBLIC "-//W3C//DTD SVG 20010904//EN"
 "http://www.w3.org/TR/2001/REC-SVG-20010904/DTD/svg10.dtd">
<svg version="1.0" xmlns="http://www.w3.org/2000/svg"
 width="893.000000pt" height="256.000000pt" viewBox="0 0 893.000000 256.000000"
 preserveAspectRatio="xMidYMid meet">
<g transform="translate(0.000000,256.000000) scale(0.100000,-0.100000)"
fill="#000000" stroke="none">
<path d="M402 2520 c-116 -25 -236 -129 -301 -262 -22 -45 -43 -96 -46 -113
-4 -21 0 -17 11 13 9 24 18 42 19 40 2 -2 -5 -39 -16 -83 -27 -113 -33 -225
-19 -320 7 -44 13 -92 13 -107 0 -15 4 -25 10 -21 5 3 6 -3 2 -17 -4 -14 -3
-20 3 -16 12 7 25 -22 15 -36 -4 -7 -1 -8 7 -3 10 6 12 4 7 -9 -5 -11 -3 -15
5 -10 8 5 9 2 5 -10 -4 -10 -3 -15 3 -11 9 6 14 -8 11 -28 -1 -5 3 -6 9 -2 10
6 15 -9 10 -30 -1 -5 1 -7 5 -3 4 4 20 -8 36 -26 16 -18 44 -44 63 -57 19 -13
37 -31 39 -40 6 -24 106 -69 181 -82 50 -8 80 -8 123 1 59 12 143 57 151 80 2
8 -9 5 -30 -8 -18 -11 -37 -20 -43 -20 -5 1 4 8 20 17 70 36 117 102 94 129
-17 20 -38 17 -75 -11 -20 -15 -34 -20 -36 -13 -3 8 -10 8 -28 -1 -24 -11 -24
-11 -6 3 28 22 13 31 -25 15 -50 -20 -147 -16 -195 9 -111 57 -203 238 -204
400 0 127 56 302 121 375 88 101 154 101 300 2 60 -41 104 -65 114 -62 23 10
18 60 -10 102 -32 47 -26 56 15 21 37 -30 43 -31 61 -10 12 14 5 24 -55 81
-114 108 -237 150 -364 123z"/>
<path d="M8225 2510 c-183 -41 -375 -139 -426 -217 -21 -32 -25 -83 -7 -101
17 -17 76 -15 160 4 59 13 72 14 79 3 5 -9 2 -17 -9 -23 -30 -16 -62 -49 -62
-65 0 -8 12 -27 28 -41 l27 -26 50 23 c60 27 287 78 309 70 46 -18 108 -148
128 -269 l11 -71 -34 -28 c-19 -16 -72 -49 -119 -75 -86 -46 -85 -48 6 -12 67
26 147 87 154 118 4 14 1 49 -5 78 -16 69 0 77 20 10 25 -86 21 -100 -39 -156
-44 -39 -80 -60 -183 -101 -248 -101 -316 -142 -365 -221 -19 -31 -35 -47 -44
-43 -33 12 -94 -190 -94 -311 0 -135 50 -268 125 -334 25 -22 55 -42 66 -45
20 -5 20 -4 -3 21 -92 99 -141 269 -120 412 8 52 9 50 10 -40 1 -156 58 -290
162 -384 45 -41 93 -47 155 -22 29 12 35 20 35 45 0 24 -11 39 -55 77 -51 44
-54 49 -39 65 14 16 13 21 -11 57 -15 23 -29 60 -31 84 l-4 43 13 -46 c7 -25
24 -60 37 -78 22 -32 24 -33 37 -15 17 24 17 38 -6 82 -31 62 -33 87 -11 149
34 98 72 125 344 238 225 93 287 138 341 244 117 231 -8 650 -248 834 -110 84
-221 104 -382 67z"/>
<path d="M3914 2465 c-3 -14 -3 -41 0 -60 8 -39 -3 -46 -22 -15 -14 23 -35 26
-51 7 -13 -17 39 -119 111 -218 69 -96 135 -225 158 -310 15 -52 19 -61 15
-30 -3 24 -14 68 -24 97 -10 30 -16 54 -15 54 2 0 13 -19 26 -42 19 -38 22
-61 24 -188 1 -92 -1 -138 -7 -125 -6 13 -7 2 -3 -33 3 -29 2 -58 -4 -65 -13
-16 -42 -147 -42 -191 0 -38 16 -57 23 -29 3 10 3 0 0 -22 -4 -32 -1 -44 15
-59 26 -23 60 -13 68 20 3 13 12 24 20 24 8 0 14 8 15 18 1 11 4 8 9 -8 7 -25
8 -24 24 13 22 50 43 196 58 397 11 158 13 167 40 201 16 20 43 46 61 59 19
14 8 -2 -27 -38 -33 -34 -57 -64 -54 -68 17 -16 62 22 241 199 160 159 199
203 225 256 18 35 32 73 32 83 0 26 -41 43 -68 29 -28 -15 -45 -14 -39 3 7 17
-11 36 -34 36 -10 0 -44 -30 -76 -67 -32 -38 -101 -117 -153 -177 -52 -60 -94
-112 -93 -115 3 -12 -52 -69 -72 -74 -17 -5 -26 6 -54 61 -52 103 -176 288
-233 348 -56 59 -84 68 -94 29z"/>
<path d="M2350 2460 l-85 -16 -17 -65 c-40 -147 -41 -408 -2 -769 22 -207 46
-314 68 -307 22 7 38 61 44 143 2 46 8 84 12 84 4 0 10 -26 13 -58 4 -32 9
-66 13 -75 6 -18 39 -23 48 -9 3 5 1 80 -4 168 -5 87 -11 246 -14 352 -4 163
-8 203 -26 258 -12 36 -20 67 -17 70 2 3 44 -111 91 -253 96 -283 168 -445
224 -499 20 -19 37 -43 38 -52 6 -43 183 -162 240 -162 19 0 25 8 35 43 24 89
49 224 49 268 0 25 6 59 14 75 7 16 17 78 20 137 6 92 18 207 41 400 l5 42
-14 -35 c-21 -51 -18 -27 8 74 25 95 24 126 -4 126 -23 0 -45 -26 -68 -81 -20
-46 -52 -73 -52 -44 0 18 -14 19 -28 3 -32 -40 -54 -179 -82 -517 -11 -135
-22 -246 -24 -248 -2 -3 -25 25 -50 60 -74 104 -91 146 -215 542 -43 137 -114
292 -153 336 l-23 26 -85 -17z"/>
<path d="M1463 2402 c-116 -93 -178 -182 -274 -397 l-67 -150 -56 3 c-40 3
-64 -1 -81 -12 -31 -20 -31 -27 0 -64 30 -36 30 -38 4 -45 -34 -9 -21 -49 19
-59 17 -5 32 -15 32 -23 0 -7 -14 -51 -31 -97 -35 -96 -79 -259 -79 -294 0
-60 58 -30 102 52 31 58 51 59 30 1 -9 -24 -13 -51 -9 -60 9 -25 44 -21 52 6
4 12 39 100 78 195 56 139 74 173 92 178 12 3 75 -8 141 -25 65 -17 133 -31
151 -31 18 0 33 -4 33 -9 0 -13 131 -32 149 -21 19 10 12 14 -54 29 -22 5 -31
9 -20 10 11 0 40 -4 65 -10 40 -9 46 -8 60 11 15 20 17 17 44 -67 37 -117 96
-240 106 -223 5 8 10 3 15 -18 7 -35 68 -87 90 -78 18 7 18 39 0 90 -12 33
-12 41 1 53 8 8 14 10 14 4 0 -6 5 -11 10 -11 19 0 10 42 -34 153 -24 62 -76
209 -115 327 -52 157 -94 261 -156 385 -46 94 -90 178 -97 188 -12 16 -107 46
-150 47 -9 0 -38 -17 -65 -38z m72 -199 l-28 -38 31 29 c18 16 34 28 36 25 2
-2 24 -45 50 -96 28 -57 43 -99 39 -109 -4 -11 -2 -15 4 -11 12 8 26 -20 17
-34 -3 -5 0 -9 6 -9 7 0 9 -7 6 -16 -3 -8 -2 -13 3 -10 11 7 84 -181 77 -199
-3 -9 0 -26 6 -40 6 -14 8 -28 4 -32 -10 -10 -25 17 -19 33 6 16 -34 28 -177
54 -63 11 -150 33 -192 48 l-78 28 57 114 c32 63 58 122 59 132 2 30 102 168
121 168 3 0 -7 -17 -22 -37z"/>
<path d="M6235 2396 c-9 -13 -24 -46 -34 -75 -23 -67 -35 -77 -27 -23 7 48 -6
82 -32 82 -26 0 -94 -353 -100 -517 -7 -216 44 -378 150 -478 29 -27 41 -37
28 -21 -23 26 -20 25 37 -12 137 -87 371 -104 521 -37 28 13 52 22 52 20 0
-10 -85 -47 -138 -59 -31 -8 -47 -15 -35 -15 30 -1 132 32 169 55 70 44 171
155 158 175 -3 5 0 9 6 9 6 0 8 5 5 10 -3 6 -1 10 6 10 7 0 10 2 7 6 -3 3 4
35 17 72 12 37 26 87 30 112 4 25 14 66 22 92 20 63 16 450 -6 470 -11 11 -12
-9 -7 -127 8 -163 -6 -352 -34 -462 -19 -73 -63 -183 -74 -183 -3 0 6 24 19
53 56 121 74 259 75 569 1 182 -1 221 -15 248 -12 23 -22 30 -38 28 -20 -3
-22 -10 -25 -65 -2 -47 -7 -63 -17 -63 -8 0 -15 -8 -16 -17 -1 -12 -4 -9 -9 7
l-7 25 -11 -26 c-7 -17 -9 -92 -5 -216 5 -159 3 -202 -12 -268 -32 -144 -92
-238 -187 -291 -48 -26 -62 -29 -143 -29 -75 0 -99 5 -145 26 -70 33 -116 79
-149 149 -39 83 -41 251 -7 460 25 147 33 280 20 314 -9 23 -31 20 -49 -8z"/>
<path d="M5450 2396 c0 -2 31 -15 70 -30 38 -15 73 -32 76 -38 3 -5 -7 -3 -22
5 -16 8 -62 25 -102 37 -64 19 -78 21 -122 10 -56 -13 -67 -24 -50 -45 11 -14
34 -21 114 -39 15 -4 25 -10 21 -14 -3 -4 11 -15 32 -25 21 -9 30 -15 20 -12
-94 26 -90 7 6 -38 97 -45 130 -76 169 -155 30 -61 33 -76 37 -179 11 -355
-186 -575 -432 -483 -168 63 -269 324 -211 545 26 101 55 140 135 181 69 34
70 36 54 54 -31 34 -92 36 -167 5 -11 -4 -18 -3 -18 3 0 6 29 24 65 41 60 29
65 33 54 52 -12 24 -33 21 -105 -13 -103 -48 -184 -152 -215 -278 -21 -84 -16
-268 10 -365 74 -280 278 -451 516 -432 50 3 50 3 -10 5 -77 2 -162 24 -223
58 -49 26 -41 25 40 -7 175 -69 362 -32 500 98 33 32 56 48 50 36 -30 -56
-158 -141 -253 -168 -53 -15 -53 -15 -10 -10 63 8 148 52 204 104 48 45 102
112 79 97 -18 -11 -15 -2 18 52 17 26 43 82 57 123 24 66 27 90 29 226 1 84 4
156 7 160 8 13 -21 109 -49 167 -57 117 -150 208 -249 245 -45 16 -125 34
-125 27z"/>
<path d="M430 932 c-152 -9 -348 -47 -375 -73 -17 -16 16 -29 80 -30 l60 -1
-40 -12 c-24 -8 -41 -20 -44 -31 -3 -16 2 -17 40 -11 127 21 175 26 294 26
151 0 181 -11 215 -81 22 -47 28 -125 8 -113 -7 5 -10 2 -7 -7 6 -17 -44 -66
-61 -61 -7 3 -10 0 -7 -5 4 -6 -4 -8 -20 -5 -15 3 -23 1 -20 -5 3 -5 -27 -7
-79 -5 -47 2 -110 1 -140 -3 -45 -5 -57 -11 -70 -33 -14 -26 -15 -24 -10 41 4
37 9 96 12 132 6 55 4 66 -10 71 -10 4 -25 -1 -35 -10 -16 -15 -19 -15 -24 -1
-11 27 -36 16 -53 -22 -12 -27 -16 -70 -17 -151 0 -62 -3 -109 -6 -104 -3 6
-5 -42 -5 -106 2 -158 2 -156 19 -178 15 -19 15 -19 9 1 -3 12 2 8 11 -8 19
-33 48 -33 53 1 2 13 10 26 17 28 10 4 12 23 8 78 -3 40 -3 93 1 118 l7 44 67
-64 c54 -52 92 -77 197 -128 134 -66 181 -81 135 -43 -19 16 -20 18 -4 10 11
-5 27 -17 34 -26 22 -27 71 -48 83 -36 9 9 6 16 -38 78 -7 9 -6 16 3 22 20 12
-25 42 -163 107 -63 30 -115 56 -115 57 0 1 33 3 73 4 180 4 287 97 287 248 0
124 -46 212 -135 255 -46 22 -155 37 -235 32z"/>
<path d="M5030 932 c-152 -9 -348 -47 -375 -73 -17 -16 16 -29 80 -30 l60 -1
-40 -12 c-24 -8 -41 -20 -44 -31 -3 -16 2 -17 40 -11 127 21 175 26 294 26
151 0 181 -11 215 -81 22 -47 28 -125 8 -113 -7 5 -10 2 -7 -7 6 -17 -44 -66
-61 -61 -7 3 -10 0 -7 -5 4 -6 -4 -8 -20 -5 -15 3 -23 1 -20 -5 3 -5 -27 -7
-79 -5 -47 2 -110 1 -140 -3 -45 -5 -57 -11 -70 -33 -14 -26 -15 -24 -10 41 4
37 9 96 12 132 6 55 4 66 -10 71 -10 4 -25 -1 -35 -10 -16 -15 -19 -15 -24 -1
-11 27 -36 16 -53 -22 -12 -27 -16 -70 -17 -151 0 -62 -3 -109 -6 -104 -3 6
-5 -42 -5 -106 2 -158 2 -156 19 -178 15 -19 15 -19 9 1 -3 12 2 8 11 -8 19
-33 48 -33 53 1 2 13 10 26 17 28 10 4 12 23 8 78 -3 40 -3 93 1 118 l7 44 67
-64 c54 -52 92 -77 197 -128 134 -66 181 -81 135 -43 -19 16 -20 18 -4 10 11
-5 27 -17 34 -26 22 -27 71 -48 83 -36 9 9 6 16 -38 78 -7 9 -6 16 3 22 20 12
-25 42 -163 107 -63 30 -115 56 -115 57 0 1 33 3 73 4 180 4 287 97 287 248 0
124 -46 212 -135 255 -46 22 -155 37 -235 32z"/>
<path d="M3460 910 c-9 -6 -9 -9 1 -13 10 -4 9 -6 -3 -6 -20 -1 -24 -31 -7
-48 8 -8 7 -17 -1 -34 -12 -21 -13 -22 -26 -5 -8 12 -19 16 -30 12 -14 -6 -16
-18 -9 -104 3 -53 11 -115 17 -137 17 -64 26 -222 20 -329 -4 -74 -2 -97 6
-92 7 4 12 1 12 -7 0 -8 7 -21 16 -28 14 -11 19 -10 33 7 9 11 24 23 34 27 15
6 17 23 17 172 l0 166 114 -7 c62 -4 126 -4 141 0 24 6 26 11 21 34 -4 15 -8
41 -9 57 l-2 30 -137 0 c-75 0 -139 2 -141 5 -3 3 -7 48 -9 100 -2 70 0 94 9
93 7 -2 75 -8 153 -15 127 -11 142 -10 157 5 15 15 15 18 0 41 -10 15 -13 27
-7 31 21 13 9 34 -22 39 -59 9 -335 14 -348 6z"/>
<path d="M6431 889 c-25 -5 -48 -12 -52 -16 -4 -5 -25 -56 -47 -115 -22 -59
-47 -117 -55 -128 -14 -21 -16 -19 -48 41 -19 35 -56 87 -84 117 l-50 53 -47
-16 c-27 -9 -50 -21 -53 -26 -3 -5 -12 -51 -20 -102 -14 -91 -35 -163 -109
-372 -33 -93 -46 -175 -28 -175 4 0 27 30 51 67 23 38 40 59 36 48 -4 -11 -9
-35 -12 -53 -11 -62 21 -33 66 61 54 110 84 198 101 292 8 39 16 74 20 78 4 4
19 -24 35 -63 16 -39 32 -66 35 -59 5 6 9 3 13 -10 3 -14 1 -19 -6 -15 -7 3
-3 -1 7 -10 10 -8 23 -13 27 -10 5 3 9 0 9 -7 0 -7 3 -9 7 -6 3 4 11 -1 18 -9
15 -21 36 -10 85 42 19 20 29 34 23 30 -19 -11 -16 -1 17 52 16 27 39 70 50
96 12 25 25 44 30 41 11 -7 64 -145 63 -165 -2 -23 56 -295 74 -351 9 -26 20
-46 24 -43 5 3 9 -7 9 -21 0 -35 27 -85 45 -85 11 0 15 13 15 54 0 41 4 55 16
60 14 5 15 15 10 57 -11 81 -74 334 -105 418 -34 93 -112 261 -120 260 -3 -1
-26 -5 -50 -10z"/>
<path d="M935 850 c-10 -11 -21 -41 -25 -68 -7 -39 4 -442 13 -508 5 -37 56
-111 99 -146 40 -31 47 -33 118 -32 78 1 190 27 190 44 0 6 8 10 19 10 10 0
24 7 31 15 17 21 1 38 -37 39 -15 1 -28 6 -28 13 0 23 -14 24 -96 7 -99 -21
-130 -15 -160 28 -18 25 -24 49 -27 113 l-4 82 58 6 c33 4 77 2 99 -2 22 -5
54 -12 70 -16 26 -6 33 -3 44 19 9 15 11 32 5 43 -4 10 -8 24 -8 32 -1 19
-127 50 -203 51 l-63 0 0 69 c0 38 2 75 5 83 4 11 40 13 178 10 96 -2 178 1
186 6 19 14 5 31 -43 52 l-41 19 33 0 c24 1 32 5 32 20 0 15 -11 19 -67 24
-38 4 -134 7 -214 7 -133 0 -147 -2 -164 -20z"/>
<path d="M6835 850 c-10 -11 -21 -41 -25 -68 -7 -39 4 -442 13 -508 5 -37 56
-111 99 -146 40 -31 47 -33 118 -32 78 1 190 27 190 44 0 6 8 10 19 10 10 0
24 7 31 15 17 21 1 38 -37 39 -15 1 -28 6 -28 13 0 23 -14 24 -96 7 -99 -21
-130 -15 -160 28 -18 25 -24 49 -27 113 l-4 82 58 6 c33 4 77 2 99 -2 22 -5
54 -12 70 -16 26 -6 33 -3 44 19 9 15 11 32 5 43 -4 10 -8 24 -8 32 -1 19
-127 50 -203 51 l-63 0 0 69 c0 38 2 75 5 83 4 11 40 13 178 10 96 -2 178 1
186 6 19 14 5 31 -43 52 l-41 19 33 0 c24 1 32 5 32 20 0 15 -11 19 -67 24
-38 4 -134 7 -214 7 -133 0 -147 -2 -164 -20z"/>
<path d="M1802 830 c-63 -45 -100 -98 -165 -232 l-62 -128 -48 0 c-54 0 -70
-19 -43 -49 12 -13 14 -21 7 -26 -18 -11 -12 -37 9 -42 11 -3 20 -10 20 -16 0
-5 -16 -59 -35 -118 -19 -60 -35 -120 -35 -134 0 -46 32 -29 77 41 10 16 12
14 10 -20 -4 -72 19 -47 72 82 l52 129 42 -2 c47 -2 162 -23 192 -35 49 -20
83 -19 110 2 14 11 27 19 29 17 2 -2 11 -29 21 -59 28 -88 54 -135 99 -180 39
-39 59 -15 36 44 -7 21 -6 26 5 26 21 0 19 30 -5 85 -11 26 -45 122 -75 213
-51 154 -152 379 -179 400 -6 5 -30 14 -53 19 -39 10 -46 9 -81 -17z m107
-190 c53 -115 102 -242 97 -247 -2 -3 -1 -16 4 -29 6 -15 6 -24 0 -24 -6 0
-10 9 -10 19 0 16 -14 22 -92 36 -76 13 -179 41 -197 52 -2 2 13 38 34 80 22
43 40 84 41 91 2 8 14 30 28 51 39 55 59 49 95 -29z"/>
<path d="M2384 848 c-55 -14 -99 -80 -90 -136 4 -20 10 -180 14 -354 5 -218
11 -321 19 -329 15 -15 28 11 45 83 l13 53 3 -40 c4 -49 18 -67 35 -44 13 17
107 33 107 18 0 -5 10 -9 23 -10 21 -1 21 -1 -3 -10 -37 -13 117 -3 161 10 50
15 114 60 144 101 76 103 73 342 -6 491 -38 71 -83 113 -158 147 -47 22 -73
26 -161 28 -58 2 -123 -2 -146 -8z m261 -127 c22 -10 54 -33 70 -51 17 -18 23
-30 15 -26 -9 5 -8 2 2 -7 10 -8 15 -17 11 -20 -3 -4 -1 -7 5 -7 6 0 9 -7 5
-17 -4 -10 -2 -14 4 -10 7 5 9 -1 5 -15 -3 -15 -2 -19 7 -14 9 6 10 0 5 -20
-4 -17 -3 -25 3 -21 11 7 23 -67 23 -141 0 -54 -40 -126 -82 -148 -16 -8 -66
-22 -110 -29 -45 -8 -84 -17 -87 -21 -6 -6 104 2 159 12 l25 4 -25 -10 c-13
-6 -67 -15 -120 -19 -52 -4 -103 -11 -112 -15 -21 -10 -21 -16 -8 184 5 85 5
195 0 265 -7 105 -7 122 8 133 25 19 150 15 197 -7z"/>
<path d="M4213 809 c-34 -13 -28 -27 20 -41 49 -14 80 -38 50 -38 -10 -1 5
-12 32 -27 28 -14 61 -35 73 -47 110 -99 86 -368 -41 -470 -35 -28 -46 -31
-106 -31 -93 0 -137 29 -183 122 -30 61 -33 76 -33 158 0 77 3 96 25 135 15
27 40 53 65 67 58 32 52 48 -18 48 -51 -1 -56 1 -40 13 10 7 28 15 41 19 33 8
20 28 -17 26 -40 -1 -107 -47 -137 -93 -71 -107 -68 -304 6 -450 28 -55 106
-133 126 -126 9 3 12 1 9 -4 -11 -18 49 -32 142 -34 50 0 86 3 80 7 -7 5 0 6
16 2 16 -3 26 -2 23 3 -3 5 10 16 28 25 19 8 51 30 72 49 24 20 31 23 19 9
-11 -13 -40 -37 -64 -53 -25 -15 -40 -28 -34 -28 5 0 28 13 49 29 41 29 82 71
70 71 -3 0 7 24 23 53 50 88 63 153 58 280 -3 91 -8 120 -27 157 -60 118 -132
171 -238 176 -37 1 -77 -2 -89 -7z"/>
<path d="M8095 433 c-83 -18 -145 -59 -145 -95 0 -11 23 -52 50 -92 28 -40 50
-79 50 -87 0 -8 12 -38 26 -67 28 -56 39 -60 109 -42 l30 8 -32 1 c-33 1 -45
17 -20 26 17 6 89 -20 80 -29 -4 -4 -1 -11 7 -16 41 -26 62 10 28 49 l-23 25
26 -16 26 -17 7 65 c4 35 4 86 0 113 -5 39 -11 50 -33 59 -22 10 -23 10 -2 6
26 -7 41 9 34 36 -3 10 -14 18 -28 18 -13 0 -54 14 -90 31 -37 17 -70 30 -74
30 -3 -1 -15 -3 -26 -6z"/>
</g>
</svg>
