<?xml version="1.0" standalone="no"?>
<!DOCTYPE svg PUBLIC "-//W3C//DTD SVG 1.1//EN" "http://www.w3.org/Graphics/SVG/1.1/DTD/svg11.dtd" >
<svg xmlns="http://www.w3.org/2000/svg">
<metadata></metadata>
<defs>
<font id="anglecia_pro_dspregular" horiz-adv-x="610" >
<font-face units-per-em="1000" ascent="750" descent="-250" />
<missing-glyph horiz-adv-x="218" />
<glyph horiz-adv-x="0" />
<glyph horiz-adv-x="333" />
<glyph unicode=" "  horiz-adv-x="218" />
<glyph unicode="&#x09;" horiz-adv-x="218" />
<glyph unicode="&#xa0;" horiz-adv-x="218" />
<glyph unicode="!" horiz-adv-x="212" d="M118 196h-24q-12 167 -25 271.5t-19.5 135t-6.5 37.5q0 27 18 45.5t45 18.5t45 -18.5t18 -45.5q0 -7 -6.5 -37.5t-19.5 -134.5t-25 -272zM45 58q0 26 17.5 44t43.5 18t43.5 -18t17.5 -44t-17.5 -44t-43.5 -18t-43.5 18t-17.5 44z" />
<glyph unicode="&#x22;" horiz-adv-x="289" d="M96 499h-22q-3 48 -10.5 84t-12.5 54.5t-5 26.5q0 17 11 28.5t28 11.5t28 -11.5t11 -28.5q0 -8 -5 -26.5t-12.5 -54.5t-10.5 -84zM220 499h-21q-3 48 -10.5 84t-13 54.5t-5.5 26.5q0 17 11 28.5t28 11.5t28.5 -11.5t11.5 -28.5q0 -8 -5.5 -26.5t-13 -54.5t-10.5 -84z" />
<glyph unicode="#" horiz-adv-x="566" d="M70 450v30h124l65 220h33l-65 -220h190l65 220h33l-65 -220h82v-30h-91l-60 -200h116v-31h-125l-65 -219h-33l65 219h-190l-65 -219h-33l65 219h-82v31h91l60 200h-115zM218 450l-60 -200h190l60 200h-190z" />
<glyph unicode="$" horiz-adv-x="589" d="M298 -50h-23v44q-98 3 -176 47h-49v122h18q10 -46 34 -78.5t55.5 -48t59.5 -21.5t58 -6l4 298q-33 10 -48 14.5t-44 15.5t-43 20t-34 24.5t-29.5 32.5t-16.5 41t-7 53q0 87 57 142t170 56l1 44h24l-1 -45q83 -4 156 -46h49v-123h-18q-10 45 -31.5 77t-50 48t-54 22.5 t-51.5 7.5l-4 -278h2q45 -14 71 -23.5t61.5 -28t55 -39t33.5 -53t14 -72.5q0 -89 -60.5 -144.5t-182.5 -58.5v-44zM456 161q0 60 -35.5 87.5t-118.5 51.5l-4 -290q75 5 116.5 44.5t41.5 106.5zM142 550q0 -54 32.5 -80.5t106.5 -49.5l3 270q-65 -5 -103.5 -43.5t-38.5 -96.5 z" />
<glyph unicode="%" horiz-adv-x="733" d="M44 525q0 82 41 131.5t106 49.5t105.5 -49.5t40.5 -131.5q0 -83 -40.5 -132t-105.5 -49t-106 49t-41 132zM114 525q0 -80 21 -123t56 -43t56 43t21 123t-21 123t-56 43t-56 -43t-21 -123zM178 0h-39l416 700h39zM395 175q0 82 41 131.5t106 49.5t105.5 -49.5t40.5 -131.5 q0 -83 -40.5 -132t-105.5 -49t-106 49t-41 132zM465 175q0 -80 21 -123t56 -43t56 43t21 123t-21 123t-56 43t-56 -43t-21 -123z" />
<glyph unicode="&#x26;" horiz-adv-x="719" d="M610 382q0 -144 -52 -236l97 -120l53 -16v-10h-164l-60 71q-76 -76 -196 -76q-111 0 -176.5 55.5t-65.5 146.5q0 42 13.5 75t41 57t54.5 39.5t67 32.5q-64 82 -64 160q0 67 41.5 105.5t124.5 38.5q77 0 113.5 -33.5t36.5 -88.5q0 -100 -136 -167l206 -252q43 85 43 218 l-62 18v9h147v-9zM314 22q96 0 157 67l-216 265q-50 -29 -78 -67t-28 -102q0 -81 42.5 -122t122.5 -41zM255 589q0 -66 62 -146q62 29 97 62.5t35 82.5q0 44 -30.5 71.5t-76.5 27.5q-87 0 -87 -98z" />
<glyph unicode="'" horiz-adv-x="170" d="M96 499h-22q-3 48 -10.5 84t-12.5 54.5t-5 26.5q0 17 11 28.5t28 11.5t28 -11.5t11 -28.5q0 -8 -5 -26.5t-12.5 -54.5t-10.5 -84z" />
<glyph unicode="(" horiz-adv-x="268" d="M48 275q0 158 44.5 271t134.5 209l12 -11q-96 -188 -96 -469t96 -469l-12 -11q-90 96 -134.5 209t-44.5 271z" />
<glyph unicode=")" horiz-adv-x="268" d="M220 275q0 -158 -44.5 -271t-134.5 -209l-11 11q96 191 96 469t-96 469l11 11q90 -96 134.5 -209t44.5 -271z" />
<glyph unicode="*" horiz-adv-x="432" d="M216 499q-23 -36 -37.5 -65.5t-20.5 -45.5t-10 -21q-8 -11 -21 -13t-23 6q-11 7 -12.5 20t6.5 24q4 5 16.5 15.5t36 33.5t51.5 56q-42 11 -74.5 15.5t-49.5 5.5t-23 3q-13 4 -19 15t-2 24q5 13 16 18.5t24 1.5q7 -2 21 -11t43 -24.5t69 -31.5q-3 43 -8.5 75.5t-9.5 48.5 t-4 23q0 14 9 23t22 9t22 -9t9 -23q0 -7 -4 -23t-9.5 -48.5t-8.5 -75.5q40 16 69 31.5t43 24.5t20 11q31 10 41 -20q4 -12 -2.5 -24t-19.5 -16q-6 -2 -22.5 -2.5t-49 -5t-74.5 -15.5q27 -33 51 -56t37 -33.5t17 -15.5q8 -11 6.5 -24.5t-13.5 -20.5q-10 -8 -23.5 -5.5 t-20.5 13.5q-4 6 -10 21t-20.5 45t-37.5 66z" />
<glyph unicode="+" horiz-adv-x="453" d="M38 285v30h173v173h31v-173h173v-30h-173v-174h-31v174h-173z" />
<glyph unicode="," horiz-adv-x="201" d="M63 -116l-12 12q22 22 37.5 49.5t15.5 43.5q0 8 -4 11q-26 0 -43.5 17t-17.5 42q0 26 17.5 43.5t43.5 17.5t44 -17.5t18 -50.5q0 -69 -99 -168z" />
<glyph unicode="-" horiz-adv-x="303" d="M38 273v30h227v-30h-227z" />
<glyph unicode="." horiz-adv-x="201" d="M39 58q0 26 17.5 44t43.5 18q27 0 44.5 -18t17.5 -44t-17.5 -44t-44.5 -18q-26 0 -43.5 18t-17.5 44z" />
<glyph unicode="/" horiz-adv-x="344" d="M34 -100h-33l308 850h33z" />
<glyph unicode="0" horiz-adv-x="653" d="M48 350q0 162 77.5 259t201.5 97t201.5 -97t77.5 -259q0 -163 -77.5 -259.5t-201.5 -96.5q-125 0 -202 96.5t-77 259.5zM158 350q0 -165 46 -253t123 -88q76 0 122.5 88t46.5 253q0 164 -46.5 252.5t-122.5 88.5q-77 0 -123 -88.5t-46 -252.5z" />
<glyph unicode="1" horiz-adv-x="356" d="M46 0v10l83 19v633h-96v15l187 30l13 -14v-664l84 -19v-10h-271z" />
<glyph unicode="2" horiz-adv-x="528" d="M34 0v38q149 137 203 198q141 160 141 308q0 71 -34 108t-97 37q-47 0 -87 -29v-99q0 -30 -17.5 -48t-45.5 -18q-27 0 -44 16.5t-17 46.5q0 62 61.5 104t158.5 42q108 0 168 -45t60 -132q0 -52 -23.5 -105.5t-56 -95.5t-88 -92.5t-98.5 -83.5t-110 -81h333l34 92h17v-161 h-458z" />
<glyph unicode="3" horiz-adv-x="591" d="M190 661v-89q0 -31 -17 -49t-45 -18q-27 0 -44.5 17t-17.5 47q0 63 71 100t159 37q101 0 160 -48t59 -130q0 -67 -42 -110.5t-118 -58.5q88 -15 138 -61t50 -118q0 -85 -67.5 -135.5t-177.5 -50.5q-94 0 -165.5 36.5t-71.5 100.5q0 30 17 46.5t44 16.5q28 0 45.5 -18 t17.5 -48v-89q40 -26 94 -26q71 0 114.5 43.5t43.5 122.5q0 85 -51.5 127t-140.5 42h-43v20h42q77 0 121 40t44 122q0 75 -35.5 115.5t-94.5 40.5q-52 0 -89 -25z" />
<glyph unicode="4" horiz-adv-x="584" d="M301 0v10l60 19v121h-312v15q88 157 131.5 280t43.5 255h104q0 -141 -65 -263.5t-191 -266.5h289v246l90 91l14 -14v-323h72v-20h-72v-121l60 -19v-10h-224z" />
<glyph unicode="5" horiz-adv-x="555" d="M174 122v-86q42 -26 86 -26q69 0 108.5 52.5t39.5 142.5q0 95 -46.5 148.5t-134.5 53.5q-75 0 -124 -37l-11 12l28 315q209 0 344 17v-86h-312l-45 -237q66 41 160 41q122 0 185 -59t63 -158q0 -102 -66.5 -161t-184.5 -59q-88 0 -151 34.5t-63 94.5q0 31 17 47.5 t44 16.5q29 0 46 -17.5t17 -48.5z" />
<glyph unicode="6" horiz-adv-x="585" d="M153 368q55 55 154 55q104 0 168 -58t64 -155q0 -99 -64.5 -157t-171.5 -58q-125 0 -191 83t-66 230q0 184 105 282t300 115l10 -10q-155 -31 -226 -113.5t-82 -213.5zM152 321q0 -140 36.5 -225.5t108.5 -85.5q62 0 99 54t37 146q0 91 -41 142t-105 51 q-45 0 -81.5 -22.5t-53.5 -59.5z" />
<glyph unicode="7" horiz-adv-x="550" d="M293 0h-104q0 89 28.5 177t64.5 148.5t88.5 149t82.5 153.5h-347l-40 -92h-16v164h444v-15q-20 -60 -81.5 -212t-90.5 -259t-29 -214z" />
<glyph unicode="8" horiz-adv-x="575" d="M498 539q0 -109 -120 -161q74 -30 113 -71t39 -114q0 -90 -61.5 -144.5t-190.5 -54.5q-116 0 -174 46.5t-58 125.5q0 69 40 110.5t108 69.5q-60 25 -91.5 62.5t-31.5 105.5q0 85 54 138.5t168 53.5q101 0 153 -45.5t52 -121.5zM278 316q-50 17 -59 20q-44 -25 -66 -60 t-22 -99q0 -167 156 -167q77 0 120 39.5t43 110.5q0 67 -38 96.5t-134 59.5zM307 404q8 -3 37 -13q37 26 55 59t18 84q0 75 -34.5 115.5t-97.5 40.5t-100 -38t-37 -99q0 -60 36 -89.5t123 -59.5z" />
<glyph unicode="9" horiz-adv-x="582" d="M427 332q-56 -54 -150 -54q-104 0 -167.5 56t-63.5 153q0 99 66.5 158.5t174.5 59.5q123 0 186 -79.5t63 -226.5q0 -375 -420 -403l-10 10q87 13 148 41.5t96.5 72t53 94t23.5 118.5zM430 379q0 143 -34 227t-106 84q-64 0 -102.5 -56t-38.5 -149q0 -89 41 -138t104 -49 q46 0 82 22t54 59z" />
<glyph unicode=":" horiz-adv-x="201" d="M39 58q0 26 17.5 44t43.5 18q27 0 44.5 -18t17.5 -44t-17.5 -44t-44.5 -18q-26 0 -43.5 18t-17.5 44zM39 442q0 26 17.5 44t43.5 18q27 0 44.5 -18t17.5 -44t-17.5 -44t-44.5 -18q-26 0 -43.5 18t-17.5 44z" />
<glyph unicode=";" horiz-adv-x="201" d="M63 -116l-12 12q22 22 37.5 49.5t15.5 43.5q0 8 -4 11q-26 0 -43.5 17t-17.5 42q0 26 17.5 43.5t43.5 17.5t44 -17.5t18 -50.5q0 -69 -99 -168zM39 442q0 26 17.5 44t43.5 18q27 0 44.5 -18t17.5 -44t-17.5 -44t-44.5 -18q-26 0 -43.5 18t-17.5 44z" />
<glyph unicode="&#x3c;" horiz-adv-x="453" d="M390 446l14 -28l-307 -143l307 -143l-14 -27l-341 159v22z" />
<glyph unicode="=" horiz-adv-x="453" d="M38 356v31h377v-31h-377zM38 213v30h377v-30h-377z" />
<glyph unicode="&#x3e;" horiz-adv-x="453" d="M49 418l13 28l342 -160v-22l-342 -159l-13 27l306 143z" />
<glyph unicode="?" horiz-adv-x="507" d="M262 196h-24q-7 59 3 102t30.5 70t41.5 50.5t36.5 57t15.5 76.5q0 62 -33 99.5t-91 37.5q-43 0 -81 -27v-94q0 -31 -17.5 -49t-45.5 -18q-27 0 -44 16.5t-17 48.5q0 59 60.5 98.5t150.5 39.5q104 0 164 -44.5t60 -123.5q0 -45 -21.5 -80.5t-52.5 -61t-61.5 -51.5t-52 -63 t-21.5 -84zM191 58q0 26 17.5 44t43.5 18t44 -18t18 -44t-18 -44t-44 -18t-43.5 18t-17.5 44z" />
<glyph unicode="@" horiz-adv-x="876" d="M754 -44l12 -12q-50 -50 -133 -76t-179 -26q-190 0 -298 96t-108 264q0 164 104 258t296 94q190 0 285 -90.5t95 -240.5q0 -106 -48.5 -167t-139.5 -61q-92 0 -105 56l-3 1q-55 -57 -137 -57t-125.5 56t-43.5 148q0 108 59 165t167 57q57 0 112 -20l44 23l14 -15v-350 q0 -41 34 -41q38 0 61.5 51t23.5 140q0 324 -293 324q-154 0 -232.5 -87.5t-78.5 -240.5q0 -156 85.5 -244.5t260.5 -88.5q79 0 153 20t118 64zM531 72v313q-46 22 -81 22q-62 0 -95.5 -50.5t-33.5 -144.5q0 -85 31.5 -136t85.5 -51q52 0 93 47z" />
<glyph unicode="A" horiz-adv-x="755" d="M402 700l281 -671l64 -19v-10h-241v10l66 19l-84 203h-302l-88 -203l88 -19v-10h-178v10l68 19l293 671h33zM341 590l-146 -337h284z" />
<glyph unicode="B" horiz-adv-x="654" d="M19 700h320q107 0 173.5 -46.5t66.5 -127.5q0 -66 -43.5 -109t-118.5 -58q88 -15 139 -61t51 -116q0 -84 -74 -133t-194 -49h-320v8l65 16v652l-65 15v9zM192 20h127q81 0 129.5 42.5t48.5 121.5q0 80 -48.5 122t-129.5 42h-127v-328zM319 680h-127v-312h127q68 0 109 40 t41 116q0 75 -41.5 115.5t-108.5 40.5z" />
<glyph unicode="C" horiz-adv-x="704" d="M641 107l11 -12q-99 -101 -259 -101q-158 0 -251.5 96t-93.5 260q0 163 93 259.5t248 96.5q129 0 208 -60l42 25l10 -10v-138h-17q-10 49 -37 83t-62 49.5t-64.5 21.5t-59.5 6q-117 0 -182.5 -84.5t-65.5 -244.5q0 -153 68 -240.5t201 -87.5q131 0 211 81z" />
<glyph unicode="D" horiz-adv-x="726" d="M19 700h319q152 0 246 -94.5t94 -255.5q0 -162 -94 -256t-246 -94h-319v8l65 16v652l-65 15v9zM338 680h-146v-660h146q103 0 165 84.5t62 244.5q0 161 -62 246t-165 85z" />
<glyph unicode="E" horiz-adv-x="619" d="M192 20h312l47 102h16v-122h-548v8l65 16v652l-65 15v9h538v-123h-16l-47 103h-302v-308h244l21 78h15v-177h-15l-21 78h-244v-331z" />
<glyph unicode="F" horiz-adv-x="596" d="M414 351h-222v-322l95 -19v-10h-268v10l65 19v647l-65 15v9h525v-123h-17l-46 103h-289v-308h222l21 78h16v-177h-16z" />
<glyph unicode="G" horiz-adv-x="746" d="M664 307v-271l-13 -13l-55 23q-85 -52 -201 -52q-159 0 -253 95.5t-94 260.5q0 164 93.5 260t249.5 96q130 0 209 -60l43 25l10 -10v-138h-17q-11 49 -38 83t-62.5 49.5t-65.5 21.5t-60 6q-118 0 -183.5 -85.5t-65.5 -249.5q0 -150 64 -239.5t184 -89.5q89 0 148 45v243 l-65 18v10h234v-10z" />
<glyph unicode="H" horiz-adv-x="745" d="M19 10l65 19v642l-65 19v10h238v-10l-65 -19v-304h362v304l-65 19v10h237v-10l-65 -19v-642l65 -19v-10h-237v10l65 19v317h-362v-317l65 -19v-10h-238v10z" />
<glyph unicode="I" horiz-adv-x="276" d="M191 671v-642l62 -19v-10h-233v10l65 19v642l-65 19v10h233v-10z" />
<glyph unicode="J" horiz-adv-x="276" d="M85 16v655l-65 19v10h232v-10l-61 -19v-655q0 -73 -39.5 -125t-117.5 -96l-11 11q62 89 62 210z" />
<glyph unicode="K" horiz-adv-x="689" d="M188 671v-358l336 358l-81 19v10h180v-10l-71 -19l-212 -228l276 -417l58 -16v-10h-160l-248 370l-78 -84v-257l65 -19v-10h-237v10l65 19v642l-65 19v10h237v-10z" />
<glyph unicode="L" horiz-adv-x="587" d="M192 20h277l47 102h16v-122h-513v8l65 16v647l-65 19v10h238v-10l-65 -19v-651z" />
<glyph unicode="M" horiz-adv-x="920" d="M797 671l46 -642l62 -19v-10h-234v10l65 19l-42 579l-257 -608h-33l-261 609l-43 -582l61 -19v-8h-147v8l65 19l47 644l-65 19v10h153l250 -590l248 590h147v-10z" />
<glyph unicode="N" horiz-adv-x="697" d="M19 8l65 19v644l-65 19v10h178l395 -550v523l-65 18v9h151v-9l-65 -18v-673h-31l-477 662v-635l65 -19v-8h-151v8z" />
<glyph unicode="O" horiz-adv-x="769" d="M48 350q0 162 93 259t244 97q150 0 243.5 -97t93.5 -259q0 -163 -93.5 -259.5t-243.5 -96.5q-151 0 -244 96.5t-93 259.5zM161 349q0 -164 61.5 -252t162.5 -88t162 88t61 252q0 165 -61 253.5t-162 88.5t-162.5 -88.5t-61.5 -253.5z" />
<glyph unicode="P" horiz-adv-x="616" d="M288 680h-96v-651l100 -19v-10h-273v10l65 19v647l-65 15v9h282q120 0 194 -54t74 -146t-74 -146t-194 -54h-81l-13 13v7h81q78 0 124.5 46.5t46.5 133.5t-46.5 133.5t-124.5 46.5z" />
<glyph unicode="Q" horiz-adv-x="769" d="M760 -67l9 -9q-53 -53 -140 -53q-34 0 -66 7t-65.5 23.5t-53 27.5t-58 37t-50.5 33q-132 14 -210 108t-78 242q0 163 93 260t244 97q150 0 243.5 -97t93.5 -259q0 -138 -69 -229t-185 -115q31 -12 72.5 -38t76 -42.5t66.5 -16.5q53 0 77 24zM161 349q0 -164 61 -249 t163 -85q101 0 162 85.5t61 248.5q0 164 -61 253t-162 89t-162.5 -88.5t-61.5 -253.5z" />
<glyph unicode="R" horiz-adv-x="659" d="M567 510q0 -74 -49 -122.5t-132 -59.5q36 -13 69 -72l132 -230l58 -16v-10h-155l-182 323h-116v-294l65 -19v-10h-238v10l65 19v647l-65 15v9h300q112 0 180 -50.5t68 -139.5zM306 680h-114v-337h114q68 0 109.5 43t41.5 125t-41.5 125.5t-109.5 43.5z" />
<glyph unicode="S" horiz-adv-x="589" d="M55 21v142h18q11 -46 35 -78.5t55 -48t58.5 -21.5t57.5 -6q83 0 130 40t47 112q0 34 -10.5 57t-37 39.5t-51.5 25.5t-76 24q-26 8 -37.5 11.5t-35.5 11.5t-35.5 13.5t-31 15.5t-29 19.5t-22 23.5t-18.5 29t-10.5 35t-4.5 42q0 88 58 143t172 55q96 0 168 -47l42 29 l10 -10v-142h-18q-10 46 -32 78.5t-50.5 48t-53.5 22t-51 6.5q-73 0 -116.5 -39t-43.5 -102q0 -25 8.5 -45t19.5 -32t37 -24t43.5 -18t55.5 -18q45 -14 71 -23.5t61.5 -28t55 -39t33.5 -53t14 -72.5q0 -91 -63 -147t-189 -56q-104 0 -181 47l-43 -30z" />
<glyph unicode="T" horiz-adv-x="672" d="M577 680h-187v-651l65 -19v-10h-238v10l65 19v651h-186l-47 -103h-16v123h607v-123h-17z" />
<glyph unicode="U" horiz-adv-x="719" d="M634 673v-413q0 -123 -75.5 -194.5t-198.5 -71.5q-124 0 -200 72t-76 194v411l-65 19v10h238v-10l-65 -19v-411q0 -108 57.5 -167.5t150.5 -59.5q95 0 154.5 61t59.5 166v413l-65 18v9h150v-9z" />
<glyph unicode="V" horiz-adv-x="755" d="M361 0l-289 671l-64 19v10h241v-10l-66 -19l238 -561l236 561l-88 19v10h178v-10l-68 -19l-285 -671h-33z" />
<glyph unicode="W" horiz-adv-x="1189" d="M805 0l-212 508l-208 -508h-32l-281 671l-64 19v10h241v-10l-66 -19l230 -561l169 424l-58 137l-64 19v10h241v-10l-66 -19l230 -561l226 561l-88 19v10h178v-10l-68 -19l-275 -671h-33z" />
<glyph unicode="X" horiz-adv-x="742" d="M553 29l-218 302l-224 -302l84 -19v-10h-179v10l71 19l235 317l-233 325l-61 19v10h238v-10l-65 -19l199 -280l199 280l-85 19v10h179v-10l-70 -19l-210 -296l251 -346l62 -19v-10h-239v10z" />
<glyph unicode="Y" horiz-adv-x="724" d="M183 671l218 -345l221 345l-84 19v10h178v-10l-71 -19l-234 -367v-275l62 -19v-10h-234v10l65 19v275l-234 367l-62 19v10h241v-10z" />
<glyph unicode="Z" horiz-adv-x="613" d="M41 0v15l415 665h-342l-48 -103h-17v123h519v-15l-413 -665h357l48 102h17v-122h-536z" />
<glyph unicode="[" horiz-adv-x="285" d="M155 721v-892l112 -19v-10h-206v950h206v-10z" />
<glyph unicode="\" horiz-adv-x="344" d="M342 -100h-33l-308 850h33z" />
<glyph unicode="]" horiz-adv-x="285" d="M130 -171v892l-112 19v10h206v-950h-206v10z" />
<glyph unicode="^" horiz-adv-x="405" d="M195 705h15l162 -198l-10 -11l-160 134l-159 -134l-10 11z" />
<glyph unicode="_" horiz-adv-x="630" d="M1 -81v31h627v-31h-627z" />
<glyph unicode="`" horiz-adv-x="277" d="M98 704l138 -141l-10 -11l-185 94z" />
<glyph unicode="a" horiz-adv-x="546" d="M366 60l-3 3q-74 -69 -179 -69q-68 0 -101.5 31t-33.5 85q0 55 42.5 88t91.5 44.5t169 31.5q7 1 11 2v94q0 53 -27.5 85t-76.5 32q-39 0 -74 -23v-81q0 -30 -17 -48t-44 -18q-26 0 -43 16.5t-17 46.5q0 56 58.5 89.5t138.5 33.5q97 0 151.5 -42.5t54.5 -109.5v-305 q0 -25 24 -25q22 0 33 11l7 -7q-27 -27 -91 -27q-67 0 -74 62zM363 86v175q-119 -19 -152 -34q-53 -25 -56 -93v-11q0 -46 22 -70t61 -24q71 0 125 57z" />
<glyph unicode="b" horiz-adv-x="582" d="M79 28v659l-60 13v11l151 16l13 -14v-213l-3 -62l3 -3q66 69 164 69q97 0 146.5 -66t49.5 -177q0 -130 -68.5 -198t-202.5 -68q-109 0 -193 33zM183 413v-384q57 -19 95 -19q77 0 118 61t41 174q0 101 -38.5 162.5t-101.5 61.5q-68 0 -114 -56z" />
<glyph unicode="c" horiz-adv-x="555" d="M380 377v86q-42 26 -85 26q-70 0 -109.5 -60.5t-39.5 -163.5q0 -114 47 -177t139 -63q87 0 147 60l11 -12q-78 -78 -199 -78q-123 0 -187.5 68.5t-64.5 184.5q0 119 66 187.5t188 68.5q85 0 148 -34.5t63 -94.5q0 -31 -17 -47.5t-45 -16.5t-45 18t-17 48z" />
<glyph unicode="d" horiz-adv-x="584" d="M504 33l60 -13v-11l-150 -12l-13 13l3 50l-3 3q-65 -68 -164 -68q-98 0 -148 65.5t-50 177.5q0 127 64.5 196.5t180.5 69.5q61 0 117 -27v210l-60 13v11l150 16l13 -14v-680zM401 86v377q-54 26 -99 26q-75 0 -115.5 -61.5t-40.5 -173.5q0 -101 38.5 -163t102.5 -62 q67 0 114 57z" />
<glyph unicode="e" horiz-adv-x="558" d="M495 250h-349q0 -107 49 -165.5t145 -58.5q88 0 147 59l11 -12q-78 -78 -201 -78q-126 0 -192 69t-66 180q0 118 70.5 189t180.5 71q98 0 161 -56t63 -145q0 -24 -5 -40zM294 489q-59 0 -102 -57.5t-46 -166.5l266 15q0 103 -31 156t-87 53z" />
<glyph unicode="f" horiz-adv-x="357" d="M79 507v67q0 71 44.5 110.5t130.5 39.5q58 0 99 -22t41 -65q0 -24 -13.5 -39t-36.5 -15q-25 0 -42 17.5t-17 46.5v54q-16 8 -29 8q-34 0 -53.5 -36.5t-19.5 -98.5v-74h162v-20h-162v-451l90 -19v-10h-254v10l60 19v451h-60v8z" />
<glyph unicode="g" horiz-adv-x="562" d="M443 469h-43q75 -45 75 -130q0 -74 -58 -117.5t-152 -43.5q-79 0 -130 30q-28 -32 -28 -69q0 -55 79 -55h169q160 0 160 -123q0 -79 -70 -121.5t-207 -42.5q-97 0 -151 22.5t-54 66.5q0 57 92 110q-70 20 -70 95q0 34 16 61.5t52 62.5q-67 45 -67 124q0 74 58 118.5 t151 44.5q12 0 36 -2h210v-10zM155 340q0 -71 30 -109t80 -38t80.5 38t30.5 109q0 70 -30.5 108.5t-80.5 38.5t-80 -38t-30 -109zM185 -11q-12 0 -30 2q-39 -44 -39 -84q0 -51 36.5 -72t106.5 -21q89 0 140.5 28t51.5 78q0 30 -21 49.5t-65 19.5h-180z" />
<glyph unicode="h" d="M183 407v-378l53 -19v-10h-217v10l60 19v658l-60 13v11l151 16l13 -14v-213l-3 -68l3 -3q38 36 91.5 55.5t104.5 19.5q77 0 114.5 -45.5t37.5 -126.5v-303l60 -19v-10h-217v10l53 19v286q0 154 -99 154q-35 0 -76 -17t-69 -45z" />
<glyph unicode="i" horiz-adv-x="262" d="M19 0v10l60 19v438l-60 13v11l151 16l13 -14v-464l60 -19v-10h-224zM53 640q0 31 20 51t51 20t51.5 -20t20.5 -51t-20.5 -51t-51.5 -20t-51 20t-20 51z" />
<glyph unicode="j" horiz-adv-x="262" d="M79 16v451l-60 13v11l151 16l13 -14v-477q0 -73 -38.5 -125t-115.5 -96l-11 11q61 88 61 210zM53 640q0 31 20 51t51 20t51.5 -20t20.5 -51t-20.5 -51t-51.5 -20t-51 20t-20 51z" />
<glyph unicode="k" horiz-adv-x="563" d="M404 0l-160 262l-61 -66v-167l60 -19v-10h-224v10l60 19v658l-60 13v11l151 16l13 -14v-490l234 248l-77 19v10h170v-10l-66 -19l-130 -141l185 -304l53 -16v-10h-148z" />
<glyph unicode="l" horiz-adv-x="262" d="M19 0v10l60 19v658l-60 13v11l151 16l13 -14v-684l60 -19v-10h-224z" />
<glyph unicode="m" horiz-adv-x="886" d="M183 404v-375l51 -19v-10h-215v10l60 19v438l-60 13v11l151 16l13 -14l-3 -61l3 -3q33 35 81.5 55t93.5 20q90 0 121 -78q38 37 90 57.5t100 20.5q138 0 138 -172v-303l60 -19v-10h-215v10l51 19v286q0 154 -91 154q-32 0 -67 -15.5t-61 -44.5q11 -35 11 -77v-303l51 -19 v-10h-206v10l51 19v286q0 154 -87 154q-32 0 -65 -17.5t-56 -47.5z" />
<glyph unicode="n" d="M183 407v-378l53 -19v-10h-217v10l60 19v438l-60 13v11l151 16l13 -14l-3 -61l3 -3q37 35 91 55t105 20q77 0 114.5 -45.5t37.5 -126.5v-303l60 -19v-10h-217v10l53 19v286q0 70 -25 112t-78 42q-37 0 -76 -17t-65 -45z" />
<glyph unicode="o" horiz-adv-x="583" d="M39 249q0 116 70 185.5t183 69.5q112 0 182 -70t70 -185q0 -116 -69.5 -185t-182.5 -69t-183 69t-70 185zM146 249q0 -115 40 -177t106 -62q67 0 106.5 62t39.5 177q0 116 -39.5 178t-106.5 62q-66 0 -106 -62t-40 -178z" />
<glyph unicode="p" horiz-adv-x="582" d="M19 -200v10l60 19v638l-60 13v11l151 16l13 -14l-3 -55l3 -3q66 69 164 69q97 0 146.5 -66t49.5 -177q0 -127 -64 -196.5t-179 -69.5q-67 0 -117 27v-193l90 -19v-10h-254zM183 413v-376q51 -27 98 -27q75 0 115.5 61.5t40.5 173.5q0 101 -38 162.5t-102 61.5 q-67 0 -114 -56z" />
<glyph unicode="q" horiz-adv-x="572" d="M504 -171l60 -19v-10h-223v10l60 19v171l3 60l-3 3q-65 -68 -164 -68q-98 0 -148 66t-50 176q0 129 68.5 198t197.5 69q67 0 134 -24l52 27l13 -14v-664zM401 86v376q-53 27 -99 27q-75 0 -115.5 -61.5t-40.5 -173.5q0 -101 38.5 -163t102.5 -62q67 0 114 57z" />
<glyph unicode="r" horiz-adv-x="484" d="M79 29v438l-60 13v11l151 16l13 -14l-3 -88l3 -3l5.5 11t17 24.5t29 31t41 24.5t53.5 11q49 0 82.5 -30t33.5 -78q0 -34 -17 -50.5t-44 -16.5q-29 0 -46.5 18t-17.5 49v80q-5 4 -16 4q-22 0 -42.5 -11.5t-34.5 -28.5t-24 -34t-15 -28l-5 -12v-337l90 -19v-10h-254v10z " />
<glyph unicode="s" horiz-adv-x="457" d="M49 19v109h21q26 -118 147 -118q58 0 93.5 27t35.5 74q0 42 -29 60t-99 36q-33 9 -49.5 14t-43 17.5t-39.5 26.5t-23.5 38t-10.5 55q0 67 43.5 106.5t133.5 39.5q71 0 128 -30l21 17l10 -10v-108h-20q-9 45 -33.5 72.5t-49 35.5t-52.5 8q-51 0 -81 -26t-30 -67 q0 -38 26.5 -56t85.5 -35q31 -10 45 -14.5t40.5 -15t39.5 -21.5t28.5 -27t22 -37.5t6.5 -47.5q0 -68 -48 -107.5t-149 -39.5q-81 0 -139 31l-21 -17z" />
<glyph unicode="t" horiz-adv-x="384" d="M18 480v8q97 23 152 127l13 -13v-102h164v-20h-164v-351q0 -48 21 -75.5t62 -27.5q45 0 80 35l11 -11q-53 -55 -136 -55q-69 0 -105.5 37t-36.5 97v351h-61z" />
<glyph unicode="u" horiz-adv-x="607" d="M528 33l60 -13v-11l-151 -12l-13 13l3 57l-3 3q-36 -37 -86.5 -56t-100.5 -19q-77 0 -117.5 43t-40.5 115v314l-60 13v11l151 16l13 -14v-323q0 -141 104 -141q80 0 137 63v375l-60 13v11l150 16l14 -14v-460z" />
<glyph unicode="v" horiz-adv-x="601" d="M285 0l-215 471l-59 19v10h228v-10l-61 -19l164 -363l162 363l-83 19v10h169v-10l-64 -19l-212 -471h-29z" />
<glyph unicode="w" horiz-adv-x="899" d="M593 0l-142 341l-143 -341h-36l-202 471l-59 19v10h222v-10l-55 -19l152 -372l110 268l-44 104l-55 19v10h223v-10l-61 -19l148 -372l148 372l-82 19v10h168v-10l-63 -19l-192 -471h-37z" />
<glyph unicode="x" horiz-adv-x="585" d="M405 29l-148 198l-152 -198l80 -19v-10h-169v10l66 19l162 214l-166 228l-57 19v10h225v-10l-60 -19l137 -186l142 186l-80 19v10h169v-10l-65 -19l-153 -202l177 -240l57 -19v-10h-226v10z" />
<glyph unicode="y" horiz-adv-x="601" d="M288 -9l-218 480l-59 19v10h228v-10l-61 -19l164 -363l162 363l-83 19v10h169v-10l-64 -19l-212 -471q-50 -110 -85.5 -156t-83.5 -46q-33 0 -60.5 17.5t-27.5 55.5q0 26 14 40.5t37 14.5q24 0 39 -15t15 -40v-40q6 -3 11 -3q27 0 53.5 41.5t61.5 121.5z" />
<glyph unicode="z" horiz-adv-x="483" d="M36 0v15l298 468h-239l-32 -92h-17v109h394v-15l-297 -468h253l32 92h17v-109h-409z" />
<glyph unicode="{" horiz-adv-x="371" d="M97 275q64 -20 101.5 -82t37.5 -153q0 -111 26.5 -170.5t71.5 -59.5v-15q-88 0 -142.5 66t-54.5 177t-26.5 170t-71.5 59v16q45 0 71.5 59t26.5 170t54.5 177t142.5 66v-15q-45 0 -71.5 -59.5t-26.5 -170.5q0 -92 -37 -153.5t-102 -81.5z" />
<glyph unicode="|" horiz-adv-x="189" d="M110 -200h-31v950h31v-950z" />
<glyph unicode="}" horiz-adv-x="371" d="M276 275q-65 20 -102 81.5t-37 153.5q0 111 -26.5 170.5t-71.5 59.5v15q88 0 142.5 -66t54.5 -177t26.5 -170t71.5 -59v-16q-45 0 -71.5 -59t-26.5 -170t-54.5 -177t-142.5 -66v15q45 0 71.5 59.5t26.5 170.5q0 91 37.5 153t101.5 82z" />
<glyph unicode="~" horiz-adv-x="469" d="M43 243l-12 12q58 58 90.5 80t57.5 22q23 0 67.5 -25.5t71.5 -25.5q56 0 108 52l12 -11q-103 -105 -154 -105q-21 0 -67 25.5t-74 25.5q-50 0 -100 -50z" />
<glyph unicode="&#xa2;" horiz-adv-x="555" d="M292 -50h-23v46q-113 6 -171.5 73.5t-58.5 178.5q0 113 59.5 180.5t170.5 74.5v47h23v-46h1q85 0 148 -34.5t63 -94.5q0 -31 -17 -47.5t-45 -16.5t-45 18t-17 48v86q-43 26 -85 26h-3v-461q18 -3 40 -3q87 0 147 60l11 -12q-78 -78 -198 -78v-45zM142 265 q0 -193 127 -231v453q-61 -11 -94 -70t-33 -152z" />
<glyph unicode="&#xa3;" horiz-adv-x="566" d="M18 342v8l61 12v122q0 102 59.5 161t166.5 59q80 0 141 -34.5t61 -94.5q0 -31 -17 -47.5t-45 -16.5t-45.5 18t-17.5 48v86q-35 26 -72 26q-60 0 -93.5 -51t-33.5 -138v-138h203v-20h-203q0 -141 -49 -264q43 25 78 25q30 0 87 -25.5t92 -25.5q71 0 140 51l12 -11 q-133 -105 -195 -105q-29 0 -88 25.5t-96 25.5q-65 0 -129 -50l-12 12q6 4 26 20t30 23v299h-61z" />
<glyph unicode="&#xa5;" horiz-adv-x="724" d="M169 236v31h135v37l-234 367l-62 19v10h241v-10l-66 -19l218 -345l221 345l-84 19v10h178v-10l-71 -19l-234 -367v-37h135v-31h-135v-89h135v-31h-135v-87l62 -19v-10h-234v10l65 19v87h-135v31h135v89h-135z" />
<glyph unicode="&#xa8;" horiz-adv-x="262" d="M-45 623q0 28 18 46t46 18t46 -18t18 -46t-18 -46t-46 -18t-46 18t-18 46zM179 623q0 28 18.5 46t45.5 18q28 0 46.5 -18t18.5 -46t-18.5 -46t-46.5 -18q-27 0 -45.5 18t-18.5 46z" />
<glyph unicode="&#xa9;" horiz-adv-x="796" d="M43 350q0 147 104 251t251 104t251 -104t104 -251t-104 -251t-251 -104t-251 104t-104 251zM79 350q0 -132 93.5 -225.5t225.5 -93.5t225.5 93.5t93.5 225.5t-93.5 225.5t-225.5 93.5t-225.5 -93.5t-93.5 -225.5zM528 229l6 -6q-49 -51 -130 -51q-80 0 -127 48t-47 130 t47 130t125 48q65 0 101 -28l25 13l5 -5v-71h-9q-19 79 -109 79q-56 0 -87 -41t-31 -122q0 -76 32 -119t98 -43q64 0 101 38z" />
<glyph unicode="&#xab;" horiz-adv-x="411" d="M37 272v16l161 154l11 -10l-97 -152l97 -152l-11 -10zM192 272v16l161 154l10 -10l-97 -152l97 -152l-10 -10z" />
<glyph unicode="&#xad;" horiz-adv-x="303" d="M38 273v30h227v-30h-227z" />
<glyph unicode="&#xae;" horiz-adv-x="796" d="M43 350q0 147 104 251t251 104t251 -104t104 -251t-104 -251t-251 -104t-251 104t-104 251zM79 350q0 -132 93.5 -225.5t225.5 -93.5t225.5 93.5t93.5 225.5t-93.5 225.5t-225.5 93.5t-225.5 -93.5t-93.5 -225.5zM532 440q0 -36 -24 -60t-65 -31q20 -6 37 -36l63 -114 l30 -8v-6h-88l-89 161h-51v-146l33 -9v-6h-129v6l33 9v322l-33 9v4h155q58 0 93 -25.5t35 -69.5zM397 524h-52v-167h52q31 0 50.5 21.5t19.5 62.5t-19 62t-51 21z" />
<glyph unicode="&#xb4;" horiz-adv-x="277" d="M41 563l138 141l57 -58l-185 -94z" />
<glyph unicode="&#xb8;" horiz-adv-x="185" d="M27 -108l62 108h19l-29 -52q88 0 88 -45t-97 -134l-8 9q47 43 47 81q0 19 -17 26t-65 7z" />
<glyph unicode="&#xbb;" horiz-adv-x="411" d="M373 288v-16l-161 -154l-10 10l97 152l-97 152l10 10zM219 288v-16l-161 -154l-11 10l97 152l-97 152l11 10z" />
<glyph unicode="&#x2c6;" horiz-adv-x="366" d="M175 704h16l134 -141l-10 -11l-132 77l-132 -77l-10 11z" />
<glyph unicode="&#x2da;" horiz-adv-x="244" d="M38 628q0 36 23 58t60 22q38 0 61.5 -22t23.5 -58q0 -38 -23.5 -60t-61.5 -22q-37 0 -60 22t-23 60zM77 628q0 -28 12 -45t32 -17t32.5 17t12.5 45t-12.5 44.5t-32.5 16.5t-32 -16.5t-12 -44.5z" />
<glyph unicode="&#x2dc;" horiz-adv-x="412" d="M50 577l-12 12q48 49 75.5 68t48.5 19q19 0 56 -23t60 -23q42 0 87 45l13 -12q-89 -89 -129 -89q-17 0 -55 23t-62 23q-40 0 -82 -43z" />
<glyph unicode="&#x400;" horiz-adv-x="619" d="M192 20h312l47 102h16v-122h-548v8l65 16v652l-65 15v9h538v-123h-16l-47 103h-302v-308h244l21 78h15v-177h-15l-21 78h-244v-331zM248 884l139 -141l-11 -11l-184 95z" />
<glyph unicode="&#x401;" horiz-adv-x="619" d="M192 20h312l47 102h16v-122h-548v8l65 16v652l-65 15v9h538v-123h-16l-47 103h-302v-308h244l21 78h15v-177h-15l-21 78h-244v-331zM133 823q0 28 18.5 46t45.5 18q28 0 46.5 -18t18.5 -46t-18.5 -46t-46.5 -18q-27 0 -45.5 18t-18.5 46zM358 823q0 28 18 46t46 18 q27 0 45.5 -18t18.5 -46t-18.5 -46t-45.5 -18q-28 0 -46 18t-18 46z" />
<glyph unicode="&#x402;" horiz-adv-x="809" d="M601 -108v-43q60 0 60 199v184q0 156 -116 156q-40 0 -83 -17t-72 -45v-297l61 -19v-10h-234v10l65 19v651h-188l-46 -103h-17v123h610v-123h-16l-47 103h-188v-268l-3 -61l3 -3q43 35 104.5 55t115.5 20q81 0 119.5 -46t38.5 -126v-203q0 -107 -46 -164t-131 -57 q-51 0 -75.5 19.5t-24.5 48.5q0 25 15.5 40.5t39.5 15.5t39.5 -16.5t15.5 -42.5z" />
<glyph unicode="&#x403;" horiz-adv-x="573" d="M213 743l139 141l56 -57l-184 -95zM192 680v-651l95 -19v-10h-268v10l65 19v647l-65 15v9h515v-123h-17l-46 103h-279z" />
<glyph unicode="&#x404;" horiz-adv-x="704" d="M641 107l11 -11q-100 -102 -259 -102q-158 0 -251.5 96t-93.5 260q0 163 93 259.5t248 96.5q129 0 208 -60l42 25l10 -10v-138h-17q-10 49 -35.5 83t-59 49.5t-62.5 21.5t-61 6q-121 0 -184.5 -81t-68.5 -235h363v-20h-363q1 -151 69 -236t199 -85q132 0 212 81z" />
<glyph unicode="&#x405;" horiz-adv-x="585" d="M55 21v142h18q11 -46 35 -78.5t55 -48t58.5 -21.5t57.5 -6q83 0 130 40t47 112q0 34 -10.5 57t-37 39.5t-51.5 25.5t-76 24q-26 8 -37.5 11.5t-35.5 11.5t-35.5 13.5t-31 15.5t-29 19.5t-22 23.5t-18.5 29t-10.5 35t-4.5 42q0 88 58 143t172 55q96 0 168 -47l42 29 l10 -10v-142h-18q-10 46 -32 78.5t-50.5 48t-53.5 22t-51 6.5q-73 0 -116.5 -39t-43.5 -102q0 -25 8.5 -45t19.5 -32t37 -24t43.5 -18t55.5 -18q45 -14 71 -23.5t61.5 -28t55 -39t33.5 -53t14 -72.5q0 -91 -63 -147t-189 -56q-104 0 -181 47l-43 -30z" />
<glyph unicode="&#x406;" horiz-adv-x="276" d="M191 671v-642l62 -19v-10h-233v10l65 19v642l-65 19v10h233v-10z" />
<glyph unicode="&#x407;" horiz-adv-x="276" d="M191 671v-642l62 -19v-10h-233v10l65 19v642l-65 19v10h233v-10zM-17 804q0 27 18 45.5t46 18.5t46 -18.5t18 -45.5q0 -28 -18 -46.5t-46 -18.5t-46 18.5t-18 46.5zM165 804q0 27 18 45.5t46 18.5t46 -18.5t18 -45.5q0 -28 -18 -46.5t-46 -18.5t-46 18.5t-18 46.5z" />
<glyph unicode="&#x408;" horiz-adv-x="276" d="M85 16v655l-65 19v10h232v-10l-61 -19v-655q0 -73 -39.5 -125t-117.5 -96l-11 11q62 89 62 210z" />
<glyph unicode="&#x409;" horiz-adv-x="1088" d="M203 149l57 527l-65 15v9h513v-9l-65 -15v-289h133q118 0 191 -52t73 -141q0 -90 -72.5 -142t-191.5 -52h-305v8l65 16v656h-256l-56 -528q-8 -81 -33.5 -119t-71.5 -38q-35 0 -62.5 18.5t-27.5 57.5q0 29 16.5 45.5t42.5 16.5q27 0 43.5 -17t16.5 -47v-34q6 -2 9 -2 q15 0 27.5 31t18.5 85zM643 20h113q79 0 126.5 44.5t47.5 129.5q0 84 -47.5 128t-126.5 44h-113v-346z" />
<glyph unicode="&#x40a;" horiz-adv-x="1084" d="M19 10l65 19v642l-65 19v10h238v-10l-65 -19v-294h341v294l-65 19v10h237v-10l-65 -19v-294h133q119 0 191.5 -50.5t72.5 -137.5t-72.5 -138t-191.5 -51h-305v8l65 16v332h-341v-327l65 -19v-10h-238v10zM640 20h112q79 0 127 43.5t48 125.5q0 81 -48 124t-127 43h-112 v-336z" />
<glyph unicode="&#x40b;" horiz-adv-x="852" d="M390 326v-297l61 -19v-10h-234v10l65 19v651h-188l-46 -103h-17v123h610v-123h-16l-47 103h-188v-268l-3 -61l3 -3q43 35 104.5 55t115.5 20q81 0 119.5 -46t38.5 -127v-221l65 -19v-10h-239v10l67 19v205q0 154 -116 154q-40 0 -83 -17t-72 -45z" />
<glyph unicode="&#x40c;" horiz-adv-x="689" d="M659 38l8 -8q-35 -36 -97 -36q-58 0 -88 34.5t-47 107.5l-21 94q-14 61 -47.5 90.5t-102.5 29.5h-76v-321l65 -19v-10h-238v10l65 19v642l-65 19v10h238v-10l-65 -19v-302q132 0 166 122l20 72q18 69 47.5 106t88.5 37q42 0 69 -19t27 -57q0 -29 -16 -45.5t-43 -16.5 q-28 0 -44 17.5t-16 46.5v39q-7 4 -17 4q-46 0 -75 -111l-19 -73q-25 -93 -96 -123h19q100 0 150.5 -30.5t67.5 -102.5l22 -91q15 -65 30.5 -93t46.5 -28q20 0 43 15zM270 743l138 141l57 -57l-185 -95z" />
<glyph unicode="&#x40d;" horiz-adv-x="745" d="M311 884l139 -141l-11 -11l-184 95zM19 10l65 19v642l-65 19v10h238v-10l-65 -19v-573l361 558v15l-65 19v10h237v-10l-65 -19v-642l65 -19v-10h-237v10l65 19v576l-361 -558v-18l65 -19v-10h-238v10z" />
<glyph unicode="&#x40e;" horiz-adv-x="700" d="M421 767v61q0 25 15 40t38 15t37 -14.5t14 -36.5q0 -44 -51.5 -68t-112.5 -24q-60 0 -111.5 24t-51.5 68q0 22 14 36.5t37 14.5t37.5 -15t14.5 -40v-61q32 -12 60 -12q30 0 60 12zM331 185l-252 486l-65 19v10h241v-10l-65 -19l199 -384l207 384l-88 19v10h178v-10 l-68 -19l-260 -480q-58 -108 -99 -152.5t-99 -44.5q-39 0 -71 17.5t-32 59.5q0 29 17 46t43 17t42.5 -16.5t16.5 -42.5v-49q6 -3 13 -3q34 0 68.5 43t73.5 119z" />
<glyph unicode="&#x40f;" horiz-adv-x="737" d="M336 0h-317v8l65 16v647l-65 19v10h238v-10l-65 -19v-651h354v651l-65 19v10h237v-10l-65 -19v-647l65 -16v-8h-314l-22 -152h-24z" />
<glyph unicode="&#x410;" horiz-adv-x="755" d="M402 700l281 -671l64 -19v-10h-241v10l66 19l-84 203h-302l-88 -203l88 -19v-10h-178v10l68 19l293 671h33zM341 590l-146 -337h284z" />
<glyph unicode="&#x411;" horiz-adv-x="644" d="M192 680v-283h140q119 0 191.5 -53t72.5 -145t-72.5 -145.5t-191.5 -53.5h-313v8l65 16v652l-65 15v9h517v-123h-17l-46 103h-281zM192 20h120q79 0 126.5 46t47.5 133t-47.5 132.5t-126.5 45.5h-120v-357z" />
<glyph unicode="&#x412;" horiz-adv-x="654" d="M19 700h320q107 0 173.5 -46.5t66.5 -127.5q0 -66 -43.5 -109t-118.5 -58q88 -15 139 -61t51 -116q0 -84 -74 -133t-194 -49h-320v8l65 16v652l-65 15v9zM192 20h127q81 0 129.5 42.5t48.5 121.5q0 80 -48.5 122t-129.5 42h-127v-328zM319 680h-127v-312h127q68 0 109 40 t41 116q0 75 -41.5 115.5t-108.5 40.5z" />
<glyph unicode="&#x413;" horiz-adv-x="573" d="M192 680v-651l95 -19v-10h-268v10l65 19v647l-65 15v9h515v-123h-17l-46 103h-279z" />
<glyph unicode="&#x414;" horiz-adv-x="713" d="M623 0h-533l-48 -152h-24v172h79q16 6 30.5 41t20.5 88l57 527l-65 15v9h545v-9l-65 -15v-656h75v-172h-24zM230 680l-56 -528q-11 -102 -43 -132h382v660h-283z" />
<glyph unicode="&#x415;" horiz-adv-x="619" d="M192 20h312l47 102h16v-122h-548v8l65 16v652l-65 15v9h538v-123h-16l-47 103h-302v-308h244l21 78h15v-177h-15l-21 78h-244v-331z" />
<glyph unicode="&#x416;" horiz-adv-x="1059" d="M192 671v-39q0 -29 -16 -46.5t-44 -17.5q-27 0 -43 16.5t-16 45.5q0 38 27 57t68 19q56 0 83.5 -35.5t47.5 -107.5l20 -72q34 -122 156 -122v302l-65 19v10h238v-10l-65 -19v-302q122 0 156 122l21 72q19 73 47 108t83 35q40 0 67.5 -19t27.5 -57q0 -29 -16 -45.5 t-43 -16.5q-28 0 -44 17.5t-16 46.5v39q-7 4 -15 4q-41 0 -71 -111l-20 -73q-27 -94 -90 -123h20q99 0 148 -32.5t66 -115.5l15 -76q12 -63 28 -92t45 -29q21 0 42 15l8 -8q-34 -36 -94 -36q-56 0 -86 35.5t-43 106.5l-14 79q-13 70 -45 102.5t-104 32.5h-73v-321l65 -19 v-10h-238v10l65 19v321h-73q-71 0 -103 -32t-46 -103l-14 -79q-13 -71 -43 -106.5t-86 -35.5q-60 0 -94 36l8 8q21 -15 42 -15q29 0 44.5 28.5t28.5 92.5l16 76q16 82 65 115t149 33h19q-64 29 -89 123l-20 73q-30 111 -72 111q-8 0 -15 -4z" />
<glyph unicode="&#x417;" d="M79 540h-17v134l10 10l42 -22q69 44 182 44q106 0 172 -48.5t66 -131.5q0 -65 -42.5 -108.5t-117.5 -58.5q86 -14 137 -60.5t51 -116.5q0 -87 -73 -137.5t-192 -50.5q-120 0 -193 46l-42 -23l-10 10v135h17q10 -44 34 -74.5t55.5 -44.5t58.5 -19.5t54 -5.5q83 0 132 42.5 t49 123.5t-50.5 122.5t-137.5 41.5q-41 0 -86 -3v27q40 -4 86 -4q74 0 117 39.5t43 116.5q0 78 -41.5 118.5t-111.5 40.5q-24 0 -48.5 -5t-55.5 -18.5t-55 -44.5t-33 -75z" />
<glyph unicode="&#x418;" horiz-adv-x="745" d="M19 10l65 19v642l-65 19v10h238v-10l-65 -19v-573l361 558v15l-65 19v10h237v-10l-65 -19v-642l65 -19v-10h-237v10l65 19v576l-361 -558v-18l65 -19v-10h-238v10z" />
<glyph unicode="&#x419;" horiz-adv-x="745" d="M432 787v60q0 25 14.5 40t37.5 15q24 0 38 -14.5t14 -36.5q0 -44 -52 -68t-112 -24q-37 0 -73 9t-63.5 31.5t-27.5 52.5q0 22 14.5 36t37.5 14t37.5 -15t14.5 -40v-60q28 -12 60 -12t60 12zM19 10l65 19v642l-65 19v10h238v-10l-65 -19v-573l361 558v15l-65 19v10h237 v-10l-65 -19v-642l65 -19v-10h-237v10l65 19v576l-361 -558v-18l65 -19v-10h-238v10z" />
<glyph unicode="&#x41a;" horiz-adv-x="684" d="M659 38l8 -8q-35 -36 -97 -36q-58 0 -88 34.5t-47 107.5l-21 94q-14 61 -47.5 90.5t-102.5 29.5h-76v-321l65 -19v-10h-238v10l65 19v642l-65 19v10h238v-10l-65 -19v-302q132 0 166 122l20 72q18 69 47.5 106t88.5 37q42 0 69 -19t27 -57q0 -29 -16 -45.5t-43 -16.5 q-28 0 -44 17.5t-16 46.5v39q-7 4 -17 4q-46 0 -75 -111l-19 -73q-25 -93 -96 -123h19q100 0 150.5 -30.5t67.5 -102.5l22 -91q15 -65 30.5 -93t46.5 -28q20 0 43 15z" />
<glyph unicode="&#x41b;" horiz-adv-x="743" d="M203 149l57 527l-65 15v9h528v-9l-65 -15v-647l65 -19v-10h-237v10l65 19v651h-266l-56 -528q-16 -157 -110 -157q-35 0 -62.5 18.5t-27.5 57.5q0 29 16.5 45.5t42.5 16.5q27 0 43.5 -17t16.5 -47v-34q6 -2 9 -2q15 0 27.5 31t18.5 85z" />
<glyph unicode="&#x41c;" horiz-adv-x="920" d="M797 671l46 -642l62 -19v-10h-234v10l65 19l-42 579l-257 -608h-33l-261 609l-43 -582l61 -19v-8h-147v8l65 19l47 644l-65 19v10h153l250 -590l248 590h147v-10z" />
<glyph unicode="&#x41d;" horiz-adv-x="745" d="M19 10l65 19v642l-65 19v10h238v-10l-65 -19v-304h362v304l-65 19v10h237v-10l-65 -19v-642l65 -19v-10h-237v10l65 19v317h-362v-317l65 -19v-10h-238v10z" />
<glyph unicode="&#x41e;" horiz-adv-x="769" d="M48 350q0 162 93 259t244 97q150 0 243.5 -97t93.5 -259q0 -163 -93.5 -259.5t-243.5 -96.5q-151 0 -244 96.5t-93 259.5zM161 349q0 -164 61.5 -252t162.5 -88t162 88t61 252q0 165 -61 253.5t-162 88.5t-162.5 -88.5t-61.5 -253.5z" />
<glyph unicode="&#x41f;" horiz-adv-x="737" d="M19 10l65 19v647l-65 15v9h699v-9l-65 -15v-647l65 -19v-10h-237v10l65 19v651h-354v-651l65 -19v-10h-238v10z" />
<glyph unicode="&#x420;" horiz-adv-x="626" d="M288 680h-96v-651l100 -19v-10h-273v10l65 19v647l-65 15v9h282q120 0 194 -54t74 -146t-74 -146t-194 -54h-81l-13 13v7h81q78 0 124.5 46.5t46.5 133.5t-46.5 133.5t-124.5 46.5z" />
<glyph unicode="&#x421;" horiz-adv-x="704" d="M641 107l11 -12q-99 -101 -259 -101q-158 0 -251.5 96t-93.5 260q0 163 93 259.5t248 96.5q129 0 208 -60l42 25l10 -10v-138h-17q-10 49 -37 83t-62 49.5t-64.5 21.5t-59.5 6q-117 0 -182.5 -84.5t-65.5 -244.5q0 -153 68 -240.5t201 -87.5q131 0 211 81z" />
<glyph unicode="&#x422;" horiz-adv-x="672" d="M584 680h-187v-651l65 -19v-10h-238v10l65 19v651h-186l-47 -103h-16v123h607v-123h-17z" />
<glyph unicode="&#x423;" horiz-adv-x="700" d="M331 185l-252 486l-65 19v10h241v-10l-65 -19l199 -384l207 384l-88 19v10h178v-10l-68 -19l-260 -480q-58 -108 -99 -152.5t-99 -44.5q-39 0 -71 17.5t-32 59.5q0 29 17 46t43 17t42.5 -16.5t16.5 -42.5v-49q6 -3 13 -3q34 0 68.5 43t73.5 119z" />
<glyph unicode="&#x424;" horiz-adv-x="873" d="M490 671v-49q153 0 244.5 -73t91.5 -199q0 -127 -91.5 -200t-244.5 -73v-48l62 -19v-10h-234v10l65 19v48q-153 0 -244 73t-91 200q0 126 91 199t244 73v49l-65 19v10h234v-10zM383 92v515q-103 0 -162.5 -66t-59.5 -192q0 -125 59.5 -191t162.5 -66zM490 607v-515 q103 0 162.5 66t59.5 191q0 126 -59.5 192t-162.5 66z" />
<glyph unicode="&#x425;" horiz-adv-x="742" d="M553 29l-218 302l-224 -302l84 -19v-10h-179v10l71 19l235 317l-233 325l-61 19v10h238v-10l-65 -19l199 -280l199 280l-85 19v10h179v-10l-70 -19l-210 -296l251 -346l62 -19v-10h-239v10z" />
<glyph unicode="&#x426;" horiz-adv-x="742" d="M647 0h-628v8l65 16v647l-65 19v10h238v-10l-65 -19v-651h349v651l-65 19v10h237v-10l-65 -19v-651h75v-172h-24z" />
<glyph unicode="&#x427;" horiz-adv-x="700" d="M192 671v-178q0 -83 32.5 -127t107.5 -44q41 0 91 11.5t85 32.5v305l-65 19v10h238v-10l-65 -19v-642l65 -19v-10h-238v10l65 19v317q-44 -27 -105.5 -41.5t-116.5 -14.5q-102 0 -152 49.5t-50 139.5v192l-65 19v10h238v-10z" />
<glyph unicode="&#x428;" horiz-adv-x="1086" d="M19 8l65 16v647l-65 19v10h238v-10l-65 -19v-651h297v651l-65 19v10h238v-10l-65 -19v-651h297v651l-65 19v10h238v-10l-65 -19v-647l65 -16v-8h-1048v8z" />
<glyph unicode="&#x429;" horiz-adv-x="1096" d="M1001 0h-982v8l65 16v647l-65 19v10h238v-10l-65 -19v-651h297v651l-65 19v10h238v-10l-65 -19v-651h297v651l-65 19v10h238v-10l-65 -19v-651h74v-172h-23z" />
<glyph unicode="&#x42a;" horiz-adv-x="810" d="M366 676v-289h132q118 0 191 -52t73 -141q0 -90 -72.5 -142t-191.5 -52h-305v8l65 16v656h-157l-46 -103h-17v123h393v-9zM366 20h112q79 0 126.5 44.5t47.5 129.5q0 84 -47.5 128t-126.5 44h-112v-346z" />
<glyph unicode="&#x42b;" horiz-adv-x="886" d="M192 671v-284h133q118 0 191 -52t73 -141t-73 -141.5t-191 -52.5h-306v8l65 16v647l-65 19v10h238v-10zM192 20h112q79 0 127 45t48 129t-48 128t-127 44h-112v-346zM801 671v-642l62 -19v-10h-234v10l65 19v642l-65 19v10h234v-10z" />
<glyph unicode="&#x42c;" horiz-adv-x="636" d="M192 671v-284h133q118 0 191 -52t73 -141t-73 -141.5t-191 -52.5h-306v8l65 16v647l-65 19v10h238v-10zM192 20h112q79 0 127 45t48 129t-48 128t-127 44h-112v-346z" />
<glyph unicode="&#x42d;" horiz-adv-x="704" d="M547 347h-363v20h363q-4 152 -67 234t-184 82q-30 0 -59 -5.5t-64 -21t-61 -49.5t-36 -84h-17v138l10 10l42 -25q80 60 208 60q155 0 248.5 -96.5t93.5 -259.5t-94 -259.5t-250 -96.5q-133 0 -212 60l-42 -25l-10 10v137h17q11 -49 37 -82.5t61 -48.5t64.5 -21t60.5 -6 q124 0 189 82.5t65 246.5z" />
<glyph unicode="&#x42e;" horiz-adv-x="1002" d="M19 10l65 19v642l-65 19v10h238v-10l-65 -19v-304h138q4 155 90.5 247t221.5 92q139 0 225.5 -97t86.5 -259q0 -163 -86 -259.5t-226 -96.5q-139 0 -225 95.5t-87 256.5h-138v-317l65 -19v-10h-238v10zM443 349q0 -164 54.5 -252t144.5 -88t144.5 88t54.5 252 q0 165 -54.5 253.5t-144.5 88.5t-144.5 -88.5t-54.5 -253.5z" />
<glyph unicode="&#x42f;" horiz-adv-x="659" d="M16 30l8 8q21 -15 42 -15q27 0 42 26t30 86l17 72q14 59 44.5 91t84.5 44q-92 11 -144 58t-52 120q0 84 68.5 132t181.5 48h302v-9l-65 -15v-647l65 -19v-10h-243v10l71 19v305h-65q-67 0 -98.5 -32t-46.5 -99l-17 -74q-15 -67 -45.5 -101t-85.5 -34q-60 0 -94 36z M468 680h-117q-69 0 -111 -41.5t-42 -121.5t41.5 -121.5t111.5 -41.5h117v326z" />
<glyph unicode="&#x430;" horiz-adv-x="546" d="M366 60l-3 3q-74 -69 -179 -69q-68 0 -101.5 31t-33.5 85q0 55 42.5 88t91.5 44.5t169 31.5q7 1 11 2v94q0 53 -27.5 85t-76.5 32q-39 0 -74 -23v-81q0 -30 -17 -48t-44 -18q-26 0 -43 16.5t-17 46.5q0 56 58.5 89.5t138.5 33.5q97 0 151.5 -42.5t54.5 -109.5v-305 q0 -25 24 -25q22 0 33 11l7 -7q-27 -27 -91 -27q-67 0 -74 62zM363 86v175q-119 -19 -152 -34q-53 -25 -56 -93v-11q0 -46 22 -70t61 -24q71 0 125 57z" />
<glyph unicode="&#x431;" horiz-adv-x="595" d="M107 403h4q24 45 76.5 73t119.5 28q111 0 179.5 -70t68.5 -187q0 -116 -68.5 -184t-184.5 -68q-249 0 -249 334q0 96 20.5 165.5t55 106t76 58.5t87 29t85 10t73 9t47.5 20l13 -14q-20 -39 -53 -61t-69 -28t-75.5 -9t-74.5 -11t-64 -26.5t-47 -62t-20 -112.5zM164 249 q0 -115 39 -177t104 -62t103.5 62t38.5 177q0 116 -38.5 178t-103.5 62t-104 -62.5t-39 -177.5z" />
<glyph unicode="&#x432;" horiz-adv-x="543" d="M19 500h298q75 0 121 -33t46 -90q0 -47 -32 -78.5t-87 -41.5q67 -9 105.5 -42.5t38.5 -83.5q0 -61 -52.5 -96t-139.5 -35h-298v8l60 16v452l-60 15v9zM285 248h-102v-230h102q54 0 85.5 29.5t31.5 85.5t-31.5 85.5t-85.5 29.5zM183 267h102q43 0 68 27.5t25 79.5 t-25 79.5t-68 27.5h-102v-214z" />
<glyph unicode="&#x433;" horiz-adv-x="460" d="M379 480h-196v-451l90 -19v-10h-254v10l60 19v447l-60 15v9h408v-109h-16z" />
<glyph unicode="&#x434;" horiz-adv-x="582" d="M496 0h-410l-41 -134h-22v154h61q20 6 35.5 40.5t21.5 88.5l41 327l-60 15v9h431v-9l-60 -15v-456h67v-154h-22zM201 480l-38 -328q-12 -102 -48 -132h274v460h-188z" />
<glyph unicode="&#x435;" horiz-adv-x="558" d="M495 250h-349q0 -107 49 -165.5t145 -58.5q88 0 147 59l11 -12q-78 -78 -201 -78q-126 0 -192 69t-66 180q0 118 70.5 189t180.5 71q98 0 161 -56t63 -145q0 -24 -5 -40zM294 489q-59 0 -102 -57.5t-46 -166.5l266 15q0 103 -31 156t-87 53z" />
<glyph unicode="&#x436;" horiz-adv-x="837" d="M678 428v43q-3 2 -11 2q-36 0 -53 -72l-12 -53q-14 -60 -62 -84h20q77 0 115 -25t51 -84l12 -52q10 -45 19.5 -64t27.5 -19q16 0 29 11l7 -7q-27 -29 -86 -29q-45 0 -64 24.5t-32 78.5l-13 61q-12 48 -34.5 69t-72.5 21h-48v-220l56 -19v-10h-220v10l60 19v220h-48 q-50 0 -73 -21t-34 -69l-14 -61q-12 -54 -31 -78.5t-65 -24.5q-59 0 -86 29l7 7q15 -11 29 -11q18 0 28 19t20 64l11 52q14 59 51.5 84t115.5 25h19q-48 24 -62 84l-12 53q-17 72 -53 72q-7 0 -11 -2v-43q0 -25 -15 -40t-40 -15q-53 0 -53 57q0 38 25.5 56.5t62.5 18.5 q83 0 106 -105l12 -52q21 -83 110 -83v206l-60 19v10h224v-10l-60 -19v-206q89 0 110 83l12 52q23 105 106 105q36 0 61.5 -18.5t25.5 -56.5q0 -28 -14 -42.5t-38 -14.5q-26 0 -41 15t-15 40z" />
<glyph unicode="&#x437;" horiz-adv-x="499" d="M166 247v24q37 -3 65 -3q107 0 107 107q0 56 -26.5 84.5t-74.5 28.5q-47 0 -91 -29.5t-55 -99.5h-21v123l10 10l22 -18q66 30 153 30q88 0 139 -34t51 -91q0 -46 -33 -78t-91 -42q67 -9 105.5 -42.5t38.5 -85.5q0 -63 -57.5 -99.5t-159.5 -36.5q-82 0 -142.5 27.5 t-60.5 76.5q0 24 15 39t38 15q24 0 39.5 -17t15.5 -47v-58q41 -20 86 -20q56 0 87.5 31.5t31.5 91.5q0 116 -125 116q-30 0 -67 -3z" />
<glyph unicode="&#x438;" d="M19 10l60 19v442l-60 19v10h217v-10l-53 -19v-299l-3 -77l3 -3l244 361v18l-53 19v10h217v-10l-60 -19v-442l60 -19v-10h-217v10l53 19v299l3 77l-3 3l-244 -361v-18l53 -19v-10h-217v10z" />
<glyph unicode="&#x439;" d="M365 587v60q0 25 14.5 40t38.5 15q23 0 37 -14.5t14 -36.5q0 -44 -51.5 -68t-112.5 -24q-37 0 -73 9t-63.5 31.5t-27.5 52.5q0 22 14.5 36t37.5 14t37.5 -15t14.5 -40v-60q28 -12 60 -12t60 12zM19 10l60 19v442l-60 19v10h217v-10l-53 -19v-299l-3 -77l3 -3l244 361v18 l-53 19v10h217v-10l-60 -19v-442l60 -19v-10h-217v10l53 19v299l3 77l-3 3l-244 -361v-18l53 -19v-10h-217v10z" />
<glyph unicode="&#x43a;" horiz-adv-x="567" d="M401 429v43q-4 3 -11 3q-39 0 -56 -74l-12 -53q-14 -61 -65 -84h18q82 0 121 -25t53 -84l12 -52q11 -45 21 -64t29 -19q15 0 30 11l8 -7q-29 -29 -88 -29q-47 0 -67 24.5t-34 78.5l-14 61q-12 48 -36 69t-76 21h-51v-220l57 -19v-10h-221v10l60 19v442l-60 19v10h224v-10 l-60 -19v-206q47 0 77.5 22.5t39.5 60.5l11 52q22 105 109 105q38 0 64 -18t26 -56q0 -28 -14.5 -42.5t-38.5 -14.5q-25 0 -40.5 15t-15.5 40z" />
<glyph unicode="&#x43b;" horiz-adv-x="582" d="M177 149l35 327l-60 15v9h410v-9l-60 -15v-447l60 -19v-10h-216v10l53 19v451h-167l-34 -328q-16 -157 -102 -157q-32 0 -56 17.5t-24 54.5q0 27 14 41.5t37 14.5q25 0 40 -14.5t15 -39.5v-34q6 -2 9 -2q15 0 27.5 31t18.5 85z" />
<glyph unicode="&#x43c;" horiz-adv-x="718" d="M624 471l21 -442l60 -19v-10h-224v10l60 19l-20 397l-188 -426h-29l-192 428l-21 -401l60 -19v-8h-138v8l60 19l22 444l-60 19v10h153l172 -390l173 390h151v-10z" />
<glyph unicode="&#x43d;" horiz-adv-x="609" d="M19 10l60 19v442l-60 19v10h216v-10l-52 -19v-204h243v204l-52 19v10h216v-10l-60 -19v-442l60 -19v-10h-216v10l52 19v217h-243v-217l52 -19v-10h-216v10z" />
<glyph unicode="&#x43e;" horiz-adv-x="583" d="M39 249q0 116 70 185.5t183 69.5q112 0 182 -70t70 -185q0 -116 -69.5 -185t-182.5 -69t-183 69t-70 185zM146 249q0 -115 40 -177t106 -62q67 0 106.5 62t39.5 177q0 116 -39.5 178t-106.5 62q-66 0 -106 -62t-40 -178z" />
<glyph unicode="&#x43f;" horiz-adv-x="609" d="M19 10l60 19v447l-60 15v9h571v-9l-60 -15v-447l60 -19v-10h-216v10l52 19v451h-243v-451l52 -19v-10h-216v10z" />
<glyph unicode="&#x440;" horiz-adv-x="582" d="M19 -200v10l60 19v638l-60 13v11l151 16l13 -14l-3 -55l3 -3q66 69 164 69q97 0 146.5 -66t49.5 -177q0 -127 -64 -196.5t-179 -69.5q-67 0 -117 27v-193l90 -19v-10h-254zM183 413v-376q51 -27 98 -27q75 0 115.5 61.5t40.5 173.5q0 101 -38 162.5t-102 61.5 q-67 0 -114 -56z" />
<glyph unicode="&#x441;" horiz-adv-x="555" d="M380 377v86q-42 26 -85 26q-70 0 -109.5 -60.5t-39.5 -163.5q0 -114 47 -177t139 -63q87 0 147 60l11 -12q-78 -78 -199 -78q-123 0 -187.5 68.5t-64.5 184.5q0 119 66 187.5t188 68.5q85 0 148 -34.5t63 -94.5q0 -31 -17 -47.5t-45 -16.5t-45 18t-17 48z" />
<glyph unicode="&#x442;" horiz-adv-x="539" d="M458 480h-137v-451l60 -19v-10h-224v10l60 19v451h-137l-31 -89h-16v109h473v-109h-17z" />
<glyph unicode="&#x443;" horiz-adv-x="601" d="M288 -9l-218 480l-59 19v10h228v-10l-61 -19l164 -363l162 363l-83 19v10h169v-10l-64 -19l-212 -471q-50 -110 -85.5 -156t-83.5 -46q-33 0 -60.5 17.5t-27.5 55.5q0 26 14 40.5t37 14.5q24 0 39 -15t15 -40v-40q6 -3 11 -3q27 0 53.5 41.5t61.5 121.5z" />
<glyph unicode="&#x444;" horiz-adv-x="815" d="M460 464q48 41 127 41q96 0 142.5 -65.5t46.5 -176.5q0 -128 -59 -196.5t-166 -68.5q-45 0 -91 18v-187l60 -19v-10h-224v10l60 19v169l3 30l-3 3q-46 -37 -127 -37q-96 0 -143 65.5t-47 176.5q0 128 59.5 197t167.5 69q45 0 90 -18v203l-60 13v11l150 16l14 -14v-211 l-3 -35zM276 20q46 0 80 30v419q-37 17 -71 17q-67 0 -103 -61t-36 -176q0 -106 34.5 -167.5t95.5 -61.5zM541 476q-47 0 -81 -30v-415q39 -17 71 -17q67 0 102.5 60.5t35.5 176.5q0 106 -34 165.5t-94 59.5z" />
<glyph unicode="&#x445;" horiz-adv-x="585" d="M405 29l-148 198l-152 -198l80 -19v-10h-169v10l66 19l162 214l-166 228l-57 19v10h225v-10l-60 -19l137 -186l142 186l-80 19v10h169v-10l-65 -19l-153 -202l177 -240l57 -19v-10h-226v10z" />
<glyph unicode="&#x446;" horiz-adv-x="616" d="M530 0h-511v8l60 16v447l-60 19v10h216v-10l-52 -19v-451h240v451l-53 19v10h217v-10l-60 -19v-451h66v-154h-22z" />
<glyph unicode="&#x447;" horiz-adv-x="587" d="M183 471v-107q0 -137 95 -137q75 0 126 44v200l-52 19v10h216v-10l-60 -19v-442l60 -19v-10h-224v10l60 19v222q-69 -56 -173 -56q-75 0 -113.5 41t-38.5 113v122l-60 19v10h216v-10z" />
<glyph unicode="&#x448;" horiz-adv-x="864" d="M380 471l-50 19v10h205v-10l-51 -19v-451h197v451l-51 19v10h215v-10l-60 -19v-447l60 -16v-8h-826v8l60 16v447l-60 19v10h215v-10l-51 -19v-451h197v451z" />
<glyph unicode="&#x449;" horiz-adv-x="874" d="M788 0h-769v8l60 16v447l-60 19v10h215v-10l-51 -19v-451h197v451l-50 19v10h205v-10l-51 -19v-451h197v451l-51 19v10h215v-10l-60 -19v-451h66v-154h-22z" />
<glyph unicode="&#x44a;" horiz-adv-x="645" d="M366 500v-10l-60 -19v-186h111q86 0 139.5 -39t53.5 -104t-53 -103.5t-140 -38.5h-275v8l60 16v456h-122l-31 -89h-16v109h333zM385 266h-79v-248h79q55 0 87 32t32 92t-32 92t-87 32z" />
<glyph unicode="&#x44b;" horiz-adv-x="752" d="M294 0h-275v8l60 16v447l-60 19v10h224v-10l-60 -19v-186h111q86 0 140 -39t54 -104t-53.5 -103.5t-140.5 -38.5zM263 266h-80v-248h80q54 0 86 32t32 92t-32 92t-86 32zM672 471v-442l60 -19v-10h-224v10l60 19v442l-60 19v10h224v-10z" />
<glyph unicode="&#x44c;" horiz-adv-x="522" d="M294 0h-275v8l60 16v447l-60 19v10h224v-10l-60 -19v-186h111q86 0 140 -39t54 -104t-53.5 -103.5t-140.5 -38.5zM263 266h-80v-248h80q54 0 86 32t32 92t-32 92t-86 32z" />
<glyph unicode="&#x44d;" horiz-adv-x="538" d="M180 247v20h213q-3 105 -46.5 163t-117.5 58q-49 0 -90 -29.5t-52 -99.5h-21v123l10 10l22 -18q58 30 135 30q129 0 197.5 -70t68.5 -187t-67 -184.5t-193 -67.5q-77 0 -135.5 28.5t-58.5 78.5q0 24 15 39t38 15q24 0 39.5 -17t15.5 -47v-59q46 -23 87 -23q73 0 112.5 63 t40.5 174h-213z" />
<glyph unicode="&#x44e;" horiz-adv-x="802" d="M19 10l60 19v442l-60 19v10h216v-10l-52 -19v-205h98q5 108 71 173t170 65q107 0 174 -70t67 -185q0 -116 -66.5 -185t-174.5 -69q-107 0 -173.5 68t-67.5 183h-98v-217l52 -19v-10h-216v10zM387 249q0 -115 37 -177t98 -62t97.5 62t36.5 177q0 116 -36 178t-98 62 q-61 0 -98 -62.5t-37 -177.5z" />
<glyph unicode="&#x44f;" horiz-adv-x="570" d="M16 24l7 7q15 -11 30 -11q19 0 28.5 17t22.5 63l14 47q25 81 114 97q-72 7 -114.5 40.5t-42.5 86.5q0 59 53 94t139 35h283v-9l-60 -15v-447l60 -19v-10h-224v10l60 19v206h-50q-52 0 -79.5 -21t-40.5 -66l-14 -53q-8 -27 -13.5 -41.5t-16.5 -30t-27.5 -22t-41.5 -6.5 q-58 0 -87 29zM303 254h83v227h-83q-56 0 -89 -29t-33 -84t33 -84.5t89 -29.5z" />
<glyph unicode="&#x450;" horiz-adv-x="558" d="M495 250h-349q0 -107 49 -165.5t145 -58.5q88 0 147 59l11 -12q-78 -78 -201 -78q-126 0 -192 69t-66 180q0 118 70.5 189t180.5 71q98 0 161 -56t63 -145q0 -24 -5 -40zM294 489q-59 0 -102 -57.5t-46 -166.5l266 15q0 103 -31 156t-87 53zM231 704l138 -141l-10 -11 l-185 94z" />
<glyph unicode="&#x451;" horiz-adv-x="558" d="M495 250h-349q0 -107 49 -165.5t145 -58.5q88 0 147 59l11 -12q-78 -78 -201 -78q-126 0 -192 69t-66 180q0 118 70.5 189t180.5 71q98 0 161 -56t63 -145q0 -24 -5 -40zM294 489q-59 0 -102 -57.5t-46 -166.5l266 15q0 103 -31 156t-87 53zM111 610q0 27 18 45.5 t46 18.5t46 -18.5t18 -45.5q0 -28 -18 -46t-46 -18t-46 18t-18 46zM335 610q0 27 18.5 45.5t45.5 18.5q28 0 46.5 -18.5t18.5 -45.5q0 -28 -18.5 -46t-46.5 -18q-27 0 -45.5 18t-18.5 46z" />
<glyph unicode="&#x452;" d="M19 10l60 19v559h-60v8l60 12v79l-60 13v11l151 16l13 -14v-105h182v-20h-182v-88l-3 -68l3 -3q38 36 91.5 55.5t104.5 19.5q77 0 114.5 -45.5t37.5 -126.5v-316q0 -73 -38.5 -125t-115.5 -96l-11 11q61 88 61 210v299q0 154 -99 154q-35 0 -76 -17t-69 -45v-378l60 -19 v-10h-224v10z" />
<glyph unicode="&#x453;" horiz-adv-x="460" d="M157 563l139 141l57 -58l-185 -94zM379 480h-196v-451l90 -19v-10h-254v10l60 19v447l-60 15v9h408v-109h-16z" />
<glyph unicode="&#x454;" horiz-adv-x="545" d="M39 244q0 119 70.5 189.5t202.5 70.5q78 0 135 -30l22 18l10 -10v-123h-20q-8 49 -33.5 80t-52.5 40.5t-58 9.5q-78 0 -122.5 -59t-46.5 -163h241v-20h-241q0 -105 47 -163t139 -58q88 0 147 59l11 -12q-78 -78 -200 -78t-186.5 68t-64.5 181z" />
<glyph unicode="&#x455;" horiz-adv-x="453" d="M46 19v109h20q27 -118 148 -118q58 0 93.5 27t35.5 74q0 42 -29 60t-99 36q-33 9 -49.5 14t-43 17.5t-39.5 26.5t-23.5 38t-10.5 55q0 67 43.5 106.5t133.5 39.5q70 0 127 -30l22 17l10 -10v-108h-21q-13 65 -51 90.5t-83 25.5q-51 0 -81 -26t-30 -67q0 -38 26.5 -56 t85.5 -35q31 -10 45 -14.5t40.5 -15t39.5 -21.5t28.5 -27t22 -37.5t6.5 -47.5q0 -68 -48 -107.5t-149 -39.5q-81 0 -139 31l-21 -17z" />
<glyph unicode="&#x456;" horiz-adv-x="262" d="M19 0v10l60 19v438l-60 13v11l151 16l13 -14v-464l60 -19v-10h-224zM53 640q0 31 20 51t51 20t51.5 -20t20.5 -51t-20.5 -51t-51.5 -20t-51 20t-20 51z" />
<glyph unicode="&#x457;" horiz-adv-x="262" d="M19 0v10l60 19v438l-60 13v11l151 16l13 -14v-464l60 -19v-10h-224zM-20 623q0 28 18 46t46 18q27 0 45.5 -18t18.5 -46t-18.5 -46t-45.5 -18q-28 0 -46 18t-18 46zM144 623q0 28 18.5 46t45.5 18q28 0 46.5 -18t18.5 -46t-18.5 -46t-46.5 -18q-27 0 -45.5 18t-18.5 46z " />
<glyph unicode="&#x458;" horiz-adv-x="262" d="M79 16v451l-60 13v11l151 16l13 -14v-477q0 -73 -38.5 -125t-115.5 -96l-11 11q61 88 61 210zM53 640q0 31 20 51t51 20t51.5 -20t20.5 -51t-20.5 -51t-51.5 -20t-51 20t-20 51z" />
<glyph unicode="&#x459;" horiz-adv-x="841" d="M613 0h-274v8l60 16v456h-167l-34 -328q-16 -157 -102 -157q-32 0 -56 17.5t-24 54.5q0 27 14 41.5t37 14.5q25 0 40 -14.5t15 -39.5v-34q6 -2 9 -2q15 0 27.5 31t18.5 85l35 327l-60 15v9h410v-9l-60 -16v-190h111q87 0 140.5 -39t53.5 -104t-53.5 -103.5t-140.5 -38.5z M582 266h-80v-248h80q54 0 86 32t32 92t-32 92t-86 32z" />
<glyph unicode="&#x45a;" horiz-adv-x="862" d="M641 0h-267v10l52 17v219h-243v-217l52 -19v-10h-216v10l60 19v442l-60 19v10h216v-10l-52 -19v-204h243v204l-52 19v10h216v-10l-60 -19v-204h111q83 0 135 -36.5t52 -97.5t-51.5 -97t-135.5 -36zM609 246h-79v-228h79q51 0 81.5 29.5t30.5 84.5t-30.5 84.5t-81.5 29.5z " />
<glyph unicode="&#x45b;" d="M79 608v79l-60 13v11l151 16l13 -14v-105h182v-20h-182v-88l-3 -68l3 -3q38 36 91.5 55.5t104.5 19.5q77 0 114.5 -45.5t37.5 -126.5v-303l60 -19v-10h-217v10l53 19v286q0 154 -99 154q-35 0 -76 -17t-69 -45v-378l53 -19v-10h-217v10l60 19v559h-60v8z" />
<glyph unicode="&#x45c;" horiz-adv-x="567" d="M401 429v43q-4 3 -11 3q-39 0 -56 -74l-12 -53q-14 -61 -65 -84h18q82 0 121 -25t53 -84l12 -52q11 -45 21 -64t29 -19q15 0 30 11l8 -7q-29 -29 -88 -29q-47 0 -67 24.5t-34 78.5l-14 61q-12 48 -36 69t-76 21h-51v-220l57 -19v-10h-221v10l60 19v442l-60 19v10h224v-10 l-60 -19v-206q47 0 77.5 22.5t39.5 60.5l11 52q22 105 109 105q38 0 64 -18t26 -56q0 -28 -14.5 -42.5t-38.5 -14.5q-25 0 -40.5 15t-15.5 40zM205 563l139 141l57 -58l-185 -94z" />
<glyph unicode="&#x45d;" d="M244 704l138 -141l-10 -11l-185 94zM19 10l60 19v442l-60 19v10h217v-10l-53 -19v-299l-3 -77l3 -3l244 361v18l-53 19v10h217v-10l-60 -19v-442l60 -19v-10h-217v10l53 19v299l3 77l-3 3l-244 -361v-18l53 -19v-10h-217v10z" />
<glyph unicode="&#x45e;" horiz-adv-x="601" d="M377 587v60q0 25 14.5 40t38.5 15q23 0 37 -14.5t14 -36.5q0 -44 -51.5 -68t-112.5 -24q-37 0 -73 9t-63.5 31.5t-27.5 52.5q0 22 14.5 36t37.5 14t37.5 -15t14.5 -40v-60q28 -12 60 -12t60 12zM288 -9l-218 480l-59 19v10h228v-10l-61 -19l164 -363l162 363l-83 19v10 h169v-10l-64 -19l-212 -471q-50 -110 -85.5 -156t-83.5 -46q-33 0 -60.5 17.5t-27.5 55.5q0 26 14 40.5t37 14.5q24 0 39 -15t15 -40v-40q6 -3 11 -3q27 0 53.5 41.5t61.5 121.5z" />
<glyph unicode="&#x45f;" horiz-adv-x="609" d="M273 0h-254v8l60 16v447l-60 19v10h216v-10l-52 -19v-451h243v451l-52 19v10h216v-10l-60 -19v-447l60 -16v-8h-254l-21 -134h-21z" />
<glyph unicode="&#x490;" horiz-adv-x="533" d="M19 700h420l45 102h17v-122h-309v-651l95 -19v-10h-268v10l65 19v647l-65 15v9z" />
<glyph unicode="&#x491;" horiz-adv-x="427" d="M394 480h-211v-451l90 -19v-10h-254v10l60 19v447l-60 15v9h324l34 89h17v-109z" />
<glyph unicode="&#x4d8;" horiz-adv-x="734" d="M96 593l-11 11q99 102 256 102t251 -96t94 -259q0 -164 -93.5 -260.5t-243.5 -96.5q-135 0 -218 77.5t-83 201.5q0 34 7 55l18 19h500q0 152 -67.5 239.5t-200.5 87.5q-129 0 -209 -81zM348 11q99 0 161 83t64 237l-419 -23q0 -148 50 -222.5t144 -74.5z" />
<glyph unicode="&#x4d9;" horiz-adv-x="558" d="M63 249h349q0 107 -48 165.5t-142 58.5q-86 0 -144 -59l-11 12q76 78 198 78q124 0 189 -69t65 -180q0 -118 -70.5 -189t-180.5 -71q-98 0 -161 56t-63 145q0 23 5 39zM264 10q59 0 102 57.5t46 166.5l-266 -15q0 -103 31 -156t87 -53z" />
<glyph unicode="&#x2000;" horiz-adv-x="451" />
<glyph unicode="&#x2001;" horiz-adv-x="902" />
<glyph unicode="&#x2002;" horiz-adv-x="451" />
<glyph unicode="&#x2003;" horiz-adv-x="902" />
<glyph unicode="&#x2004;" horiz-adv-x="300" />
<glyph unicode="&#x2005;" horiz-adv-x="225" />
<glyph unicode="&#x2006;" horiz-adv-x="150" />
<glyph unicode="&#x2007;" horiz-adv-x="150" />
<glyph unicode="&#x2008;" horiz-adv-x="112" />
<glyph unicode="&#x2009;" horiz-adv-x="180" />
<glyph unicode="&#x200a;" horiz-adv-x="50" />
<glyph unicode="&#x2010;" horiz-adv-x="303" d="M38 273v30h227v-30h-227z" />
<glyph unicode="&#x2011;" horiz-adv-x="303" d="M38 273v30h227v-30h-227z" />
<glyph unicode="&#x2012;" horiz-adv-x="303" d="M38 273v30h227v-30h-227z" />
<glyph unicode="&#x2013;" horiz-adv-x="503" d="M38 273v30h427v-30h-427z" />
<glyph unicode="&#x2014;" horiz-adv-x="703" d="M38 273v30h627v-30h-627z" />
<glyph unicode="&#x2018;" horiz-adv-x="201" d="M138 705l12 -12q-21 -21 -37 -49t-16 -43q0 -6 4 -12q26 0 43.5 -16.5t17.5 -42.5t-17.5 -43t-43.5 -17t-44 17.5t-18 50.5q0 30 19.5 66t35.5 54.5t44 46.5z" />
<glyph unicode="&#x2019;" horiz-adv-x="201" d="M63 470l-12 12q21 21 37 49t16 43q0 8 -4 11q-26 0 -43.5 17t-17.5 43t17.5 43t43.5 17t44 -17.5t18 -50.5q0 -68 -99 -167z" />
<glyph unicode="&#x201a;" horiz-adv-x="201" d="M63 -116l-12 12q22 22 37.5 49.5t15.5 43.5q0 8 -4 11q-26 0 -43.5 17t-17.5 42q0 26 17.5 43.5t43.5 17.5t44 -17.5t18 -50.5q0 -69 -99 -168z" />
<glyph unicode="&#x201c;" horiz-adv-x="362" d="M299 705l12 -12q-21 -21 -37 -49t-16 -43q0 -6 4 -12q26 0 43.5 -16.5t17.5 -42.5t-17.5 -43t-43.5 -17t-44 17.5t-18 50.5q0 30 19.5 66t35.5 54.5t44 46.5zM138 705l12 -12q-21 -21 -37 -49t-16 -43q0 -6 4 -12q26 0 43.5 -16.5t17.5 -42.5t-17.5 -43t-43.5 -17 t-44 17.5t-18 50.5q0 30 19.5 66t35.5 54.5t44 46.5z" />
<glyph unicode="&#x201d;" horiz-adv-x="362" d="M63 470l-12 12q21 21 37 49t16 43q0 8 -4 11q-26 0 -43.5 17t-17.5 43t17.5 43t43.5 17t44 -17.5t18 -50.5q0 -68 -99 -167zM224 470l-12 12q21 21 37 49t16 43q0 8 -4 11q-26 0 -43.5 17t-17.5 43t17.5 43t43.5 17t44 -17.5t18 -50.5q0 -68 -99 -167z" />
<glyph unicode="&#x201e;" horiz-adv-x="362" d="M63 -116l-12 12q22 22 37.5 49.5t15.5 43.5q0 8 -4 11q-26 0 -43.5 17t-17.5 42q0 26 17.5 43.5t43.5 17.5t44 -17.5t18 -50.5q0 -69 -99 -168zM224 -116l-12 12q22 22 37.5 49.5t15.5 43.5q0 8 -4 11q-26 0 -43.5 17t-17.5 42q0 26 17.5 43.5t43.5 17.5t44 -17.5 t18 -50.5q0 -69 -99 -168z" />
<glyph unicode="&#x2026;" horiz-adv-x="599" d="M39 58q0 26 17.5 44t43.5 18q27 0 44.5 -18t17.5 -44t-17.5 -44t-44.5 -18q-26 0 -43.5 18t-17.5 44zM238 58q0 26 17.5 44t43.5 18t44 -18t18 -44t-18 -44t-44 -18t-43.5 18t-17.5 44zM437 58q0 26 17.5 44t43.5 18t44 -18t18 -44t-18 -44t-44 -18t-43.5 18t-17.5 44z " />
<glyph unicode="&#x202f;" horiz-adv-x="180" />
<glyph unicode="&#x2039;" horiz-adv-x="256" d="M37 272v16l161 154l11 -10l-97 -152l97 -152l-11 -10z" />
<glyph unicode="&#x203a;" horiz-adv-x="256" d="M219 288v-16l-161 -154l-11 10l97 152l-97 152l11 10z" />
<glyph unicode="&#x205f;" horiz-adv-x="225" />
<glyph unicode="&#x20ac;" horiz-adv-x="704" d="M28 396v31h26q21 130 110.5 204.5t224.5 74.5q132 0 215 -60h45v-123h-17q-10 49 -37 83t-62 49.5t-64.5 21.5t-59.5 6q-102 0 -166 -65.5t-78 -190.5h353v-31h-356q-1 -14 -1 -42q0 -35 2 -51h355v-30h-352q17 -117 83 -182t181 -65q131 0 211 81l11 -12 q-99 -101 -259 -101q-139 0 -228.5 74t-110.5 205h-26v30h22q-2 30 -2 47q0 16 2 46h-22z" />
<glyph unicode="&#x2122;" horiz-adv-x="811" d="M292 689h-87v-324l32 -9v-6h-128v6l32 9v324h-87l-26 -53h-8v64h306v-64h-8zM744 684l23 -319l30 -9v-6h-126v6l31 9l-19 283l-125 -298h-20l-127 299l-20 -285l30 -10v-4h-74v4l32 10l23 320l-32 10v6h84l121 -285l119 285h81v-6z" />
<glyph unicode="&#x25fc;" horiz-adv-x="500" d="M0 500h500v-500h-500v500z" />
</font>
</defs>
</svg>
